<svg xmlns="http://www.w3.org/2000/svg" width="14" height="15" viewBox="0 0 14 15" fill="none">
  <path d="M5.0306 5.45842H2.4056C2.25089 5.45842 2.10252 5.39696 1.99312 5.28756C1.88372 5.17816 1.82227 5.02979 1.82227 4.87508V2.25008C1.82227 2.09537 1.88372 1.947 1.99312 1.8376C2.10252 1.72821 2.25089 1.66675 2.4056 1.66675C2.56031 1.66675 2.70868 1.72821 2.81808 1.8376C2.92747 1.947 2.98893 2.09537 2.98893 2.25008V4.29175H5.0306C5.18531 4.29175 5.33368 4.35321 5.44308 4.4626C5.55247 4.572 5.61393 4.72037 5.61393 4.87508C5.61393 5.02979 5.55247 5.17816 5.44308 5.28756C5.33368 5.39696 5.18531 5.45842 5.0306 5.45842Z" fill="#685E02"/>
  <path d="M12.2499 8.08335C12.0952 8.08335 11.9468 8.02189 11.8374 7.9125C11.728 7.8031 11.6666 7.65473 11.6666 7.50002C11.667 6.47308 11.3285 5.47471 10.7035 4.65983C10.0786 3.84495 9.20215 3.25912 8.21023 2.99326C7.2183 2.72739 6.16636 2.79636 5.21763 3.18945C4.26891 3.58254 3.47645 4.27777 2.96324 5.16727C2.88573 5.30117 2.7582 5.3988 2.60871 5.43867C2.45922 5.47855 2.30001 5.4574 2.16611 5.37989C2.03221 5.30238 1.93458 5.17486 1.89471 5.02537C1.85483 4.87588 1.87598 4.71667 1.95349 4.58277C2.5953 3.47107 3.58605 2.60226 4.77204 2.11112C5.95803 1.61998 7.27296 1.53396 8.51282 1.86641C9.75269 2.19886 10.8482 2.9312 11.6294 3.94981C12.4105 4.96842 12.8337 6.21635 12.8332 7.50002C12.8332 7.65473 12.7718 7.8031 12.6624 7.9125C12.553 8.02189 12.4046 8.08335 12.2499 8.08335ZM11.5937 13.3334C11.4389 13.3334 11.2906 13.2719 11.1812 13.1625C11.0718 13.0531 11.0103 12.9047 11.0103 12.75V10.7084H8.96865C8.81394 10.7084 8.66557 10.6469 8.55617 10.5375C8.44678 10.4281 8.38532 10.2797 8.38532 10.125C8.38532 9.97031 8.44678 9.82194 8.55617 9.71254C8.66557 9.60314 8.81394 9.54168 8.96865 9.54168H11.5937C11.7484 9.54168 11.8967 9.60314 12.0061 9.71254C12.1155 9.82194 12.177 9.97031 12.177 10.125V12.75C12.177 12.9047 12.1155 13.0531 12.0061 13.1625C11.8967 13.2719 11.7484 13.3334 11.5937 13.3334Z" fill="#685E02"/>
  <path d="M6.99935 13.3334C5.45282 13.3316 3.97017 12.7164 2.87661 11.6228C1.78304 10.5293 1.16787 9.04661 1.16602 7.50008C1.16602 7.34537 1.22747 7.197 1.33687 7.0876C1.44627 6.97821 1.59464 6.91675 1.74935 6.91675C1.90406 6.91675 2.05243 6.97821 2.16183 7.0876C2.27122 7.197 2.33268 7.34537 2.33268 7.50008C2.33224 8.52702 2.67076 9.52539 3.29571 10.3403C3.92066 11.1552 4.7971 11.741 5.78903 12.0068C6.78095 12.2727 7.83289 12.2037 8.78162 11.8107C9.73034 11.4176 10.5228 10.7223 11.036 9.83283C11.0744 9.76653 11.1255 9.70844 11.1863 9.66187C11.2471 9.6153 11.3165 9.58117 11.3905 9.56143C11.4646 9.54168 11.5417 9.53671 11.6177 9.5468C11.6936 9.55688 11.7668 9.58183 11.8331 9.62021C11.8994 9.65858 11.9575 9.70965 12.0041 9.77048C12.0507 9.83131 12.0848 9.90071 12.1045 9.97473C12.1243 10.0488 12.1293 10.1259 12.1192 10.2019C12.1091 10.2778 12.0841 10.351 12.0458 10.4173C11.5327 11.3019 10.7968 12.0367 9.91142 12.5483C9.026 13.06 8.02196 13.3306 6.99935 13.3334Z" fill="#685E02"/>
</svg>