<svg xmlns="http://www.w3.org/2000/svg" width="14" height="15" viewBox="0 0 14 15" fill="none">
<path d="M4.08268 8.37508C4.32574 8.37508 4.53243 8.29011 4.70277 8.12016C4.8731 7.95022 4.95807 7.74353 4.95768 7.50008C4.95768 7.25703 4.87271 7.05053 4.70277 6.88058C4.53282 6.71064 4.32613 6.62547 4.08268 6.62508C3.83963 6.62508 3.63313 6.71025 3.46318 6.88058C3.29324 7.05091 3.20807 7.25741 3.20768 7.50008C3.20768 7.74314 3.29285 7.94983 3.46318 8.12016C3.63352 8.2905 3.84002 8.37547 4.08268 8.37508ZM6.99935 8.37508C7.2424 8.37508 7.4491 8.29011 7.61943 8.12016C7.78977 7.95022 7.87474 7.74353 7.87435 7.50008C7.87435 7.25703 7.78938 7.05053 7.61943 6.88058C7.44949 6.71064 7.24279 6.62547 6.99935 6.62508C6.75629 6.62508 6.54979 6.71025 6.37985 6.88058C6.2099 7.05091 6.12474 7.25741 6.12435 7.50008C6.12435 7.74314 6.20952 7.94983 6.37985 8.12016C6.55018 8.2905 6.75668 8.37547 6.99935 8.37508ZM9.91602 8.37508C10.1591 8.37508 10.3658 8.29011 10.5361 8.12016C10.7064 7.95022 10.7914 7.74353 10.791 7.50008C10.791 7.25703 10.706 7.05053 10.5361 6.88058C10.3662 6.71064 10.1595 6.62547 9.91602 6.62508C9.67296 6.62508 9.46646 6.71025 9.29652 6.88058C9.12657 7.05091 9.0414 7.25741 9.04102 7.50008C9.04102 7.74314 9.12618 7.94983 9.29652 8.12016C9.46685 8.2905 9.67335 8.37547 9.91602 8.37508ZM6.99935 13.3334C6.1924 13.3334 5.43407 13.1802 4.72435 12.8737C4.01463 12.5673 3.39727 12.1518 2.87227 11.6272C2.34727 11.1022 1.93174 10.4848 1.62568 9.77508C1.31963 9.06536 1.1664 8.30703 1.16602 7.50008C1.16602 6.69314 1.31924 5.9348 1.62568 5.22508C1.93213 4.51536 2.34765 3.898 2.87227 3.373C3.39727 2.848 4.01463 2.43247 4.72435 2.12641C5.43407 1.82036 6.1924 1.66714 6.99935 1.66675C7.80629 1.66675 8.56463 1.81997 9.27435 2.12641C9.98407 2.43286 10.6014 2.84839 11.1264 3.373C11.6514 3.898 12.0672 4.51536 12.3736 5.22508C12.68 5.9348 12.8331 6.69314 12.8327 7.50008C12.8327 8.30703 12.6795 9.06536 12.373 9.77508C12.0666 10.4848 11.651 11.1022 11.1264 11.6272C10.6014 12.1522 9.98407 12.5679 9.27435 12.8743C8.56463 13.1808 7.80629 13.3338 6.99935 13.3334ZM6.99935 12.1667C8.30213 12.1667 9.4056 11.7147 10.3098 10.8105C11.2139 9.90633 11.666 8.80286 11.666 7.50008C11.666 6.1973 11.2139 5.09383 10.3098 4.18966C9.4056 3.2855 8.30213 2.83341 6.99935 2.83341C5.69657 2.83341 4.5931 3.2855 3.68893 4.18966C2.78477 5.09383 2.33268 6.1973 2.33268 7.50008C2.33268 8.80286 2.78477 9.90633 3.68893 10.8105C4.5931 11.7147 5.69657 12.1667 6.99935 12.1667Z" fill="#00485F"/>
</svg>