<svg xmlns="http://www.w3.org/2000/svg" width="21" height="22" viewBox="0 0 21 22" fill="none">
<path d="M11.5 1.5C11.5 1.5 13.834 1.712 16.803 4.682C19.773 7.652 19.985 9.985 19.985 9.985M12.207 5.036C12.207 5.036 13.197 5.318 14.682 6.803C16.167 8.288 16.45 9.278 16.45 9.278" stroke="#212121" stroke-width="1.5" stroke-linecap="round"/>
<path d="M13.645 15.043L14.1 14.563L13.012 13.53L12.557 14.011L13.645 15.043ZM15.599 14.361L17.509 15.462L18.258 14.161L16.347 13.061L15.599 14.361ZM17.878 17.741L16.458 19.236L17.545 20.27L18.965 18.775L17.878 17.741ZM15.603 19.716C14.168 19.857 10.423 19.737 6.359 15.459L5.272 16.491C9.701 21.154 13.926 21.39 15.75 21.209L15.603 19.716ZM6.359 15.459C2.483 11.378 1.833 7.93503 1.752 6.42503L0.254001 6.50603C0.354001 8.35603 1.138 12.139 5.272 16.491L6.359 15.459ZM7.735 8.82103L8.021 8.51903L6.934 7.48603L6.647 7.78803L7.735 8.82103ZM8.247 4.75903L6.986 2.97703L5.761 3.84303L7.021 5.62603L8.247 4.75903ZM2.717 2.59103L1.149 4.24503L2.237 5.27803L3.807 3.62503L2.717 2.59103ZM7.191 8.30403C7.01102 8.13058 6.82935 7.95891 6.646 7.78903L6.644 7.79103L6.641 7.79403C6.62344 7.81257 6.60676 7.83193 6.591 7.85203C6.49298 7.98178 6.41541 8.12578 6.361 8.27903C6.263 8.55403 6.211 8.91803 6.277 9.37203C6.407 10.264 6.992 11.463 8.519 13.072L9.607 12.038C8.179 10.535 7.827 9.61003 7.761 9.15403C7.729 8.93403 7.761 8.81903 7.774 8.78203L7.782 8.76303C7.77384 8.77621 7.76447 8.78859 7.754 8.80003C7.74813 8.80681 7.74213 8.81348 7.736 8.82003C7.736 8.82003 7.734 8.82003 7.191 8.30403ZM8.519 13.072C10.042 14.676 11.192 15.305 12.069 15.448C12.52 15.521 12.885 15.462 13.161 15.353C13.3139 15.293 13.4561 15.2086 13.582 15.103C13.5943 15.092 13.6063 15.0807 13.618 15.069L13.632 15.055C13.6344 15.0531 13.6367 15.0511 13.639 15.049L13.642 15.046L13.643 15.044C13.643 15.044 13.645 15.043 13.101 14.526C12.557 14.01 12.558 14.009 12.558 14.008L12.56 14.007L12.562 14.004C12.5637 14.0024 12.5654 14.0007 12.567 13.999L12.577 13.989C12.5887 13.9777 12.6011 13.967 12.614 13.957C12.624 13.951 12.623 13.953 12.61 13.958C12.59 13.966 12.5 13.998 12.31 13.967C11.908 13.901 11.04 13.547 9.607 12.038L8.519 13.072ZM6.986 2.97703C5.972 1.54303 3.944 1.30003 2.718 2.59203L3.804 3.62503C4.327 3.07503 5.249 3.11803 5.761 3.84303L6.986 2.97703ZM1.752 6.42503C1.73 6.02503 1.905 5.62603 2.237 5.27803L1.149 4.24503C0.613001 4.80903 0.205001 5.59203 0.254001 6.50603L1.752 6.42503ZM16.457 19.237C16.178 19.531 15.887 19.688 15.603 19.716L15.75 21.209C16.497 21.136 17.102 20.737 17.545 20.27L16.457 19.237ZM8.021 8.52003C8.989 7.50103 9.057 5.90703 8.247 4.76003L7.022 5.62603C7.444 6.22303 7.379 7.01803 6.934 7.48603L8.021 8.52003ZM17.509 15.462C18.33 15.935 18.491 17.097 17.878 17.742L18.965 18.775C20.27 17.401 19.89 15.101 18.258 14.161L17.509 15.462ZM14.1 14.564C14.485 14.158 15.086 14.067 15.599 14.362L16.347 13.062C15.248 12.43 13.887 12.612 13.012 13.532L14.1 14.564Z" fill="#212121"/>
</svg>