<svg width="14" height="15" viewBox="0 0 14 15" fill="none" xmlns="http://www.w3.org/2000/svg">
<g id="pajamas:cherry-pick-commit" clip-path="url(#clip0_845_11390)">
<path id="Vector" fill-rule="evenodd" clip-rule="evenodd" d="M7.65625 1.15625C7.65625 0.982202 7.58711 0.815282 7.46404 0.692211C7.34097 0.56914 7.17405 0.5 7 0.5C6.82595 0.5 6.65903 0.56914 6.53596 0.692211C6.41289 0.815282 6.34375 0.982202 6.34375 1.15625V3.36825C5.58445 3.42446 4.83501 3.57435 4.1125 3.8145C3.82891 3.90818 3.5508 4.01773 3.2795 4.14263C3.1798 4.18844 3.08147 4.23717 2.98463 4.28875L2.96537 4.29925L2.95925 4.30275L2.9575 4.3045H2.95662L3.28125 4.875L2.95575 4.30538C2.85531 4.36275 2.77182 4.44565 2.71373 4.54568C2.65565 4.64572 2.62504 4.75933 2.625 4.875V6.84375C2.625 7.0178 2.69414 7.18472 2.81721 7.30779C2.94028 7.43086 3.1072 7.5 3.28125 7.5C3.4553 7.5 3.62222 7.43086 3.74529 7.30779C3.86836 7.18472 3.9375 7.0178 3.9375 6.84375V5.28625C4.90598 4.87372 5.94732 4.6595 7 4.65625C8.05268 4.65947 9.09403 4.87369 10.0625 5.28625V6.84375C10.0625 7.0178 10.1316 7.18472 10.2547 7.30779C10.3778 7.43086 10.5447 7.5 10.7188 7.5C10.8928 7.5 11.0597 7.43086 11.1828 7.30779C11.3059 7.18472 11.375 7.0178 11.375 6.84375V4.875C11.375 4.75933 11.3444 4.64572 11.2863 4.54568C11.2282 4.44565 11.1447 4.36275 11.0442 4.30538L11.0425 4.3045L11.0408 4.30275L11.0346 4.29925L11.0154 4.28875C10.9185 4.23688 10.8202 4.18786 10.7205 4.14175C10.449 4.01749 10.171 3.90825 9.8875 3.8145C9.16499 3.57435 8.41555 3.42446 7.65625 3.36825V1.15625ZM9.1875 11C9.1875 11.5802 8.95703 12.1366 8.5468 12.5468C8.13656 12.957 7.58016 13.1875 7 13.1875C6.41984 13.1875 5.86344 12.957 5.4532 12.5468C5.04297 12.1366 4.8125 11.5802 4.8125 11C4.8125 10.4198 5.04297 9.86344 5.4532 9.4532C5.86344 9.04297 6.41984 8.8125 7 8.8125C7.58016 8.8125 8.13656 9.04297 8.5468 9.4532C8.95703 9.86344 9.1875 10.4198 9.1875 11ZM10.4388 11.6562C10.286 12.4564 9.85898 13.1781 9.23131 13.6973C8.60363 14.2165 7.81456 14.5005 7 14.5005C6.18544 14.5005 5.39637 14.2165 4.76869 13.6973C4.14102 13.1781 3.71402 12.4564 3.56125 11.6562H0.65625C0.482202 11.6562 0.315282 11.5871 0.192211 11.464C0.0691404 11.341 0 11.174 0 11C0 10.826 0.0691404 10.659 0.192211 10.536C0.315282 10.4129 0.482202 10.3438 0.65625 10.3438H3.56125C3.71402 9.54364 4.14102 8.82185 4.76869 8.30268C5.39637 7.78352 6.18544 7.49948 7 7.49948C7.81456 7.49948 8.60363 7.78352 9.23131 8.30268C9.85898 8.82185 10.286 9.54364 10.4388 10.3438H13.3438C13.5178 10.3438 13.6847 10.4129 13.8078 10.536C13.9309 10.659 14 10.826 14 11C14 11.174 13.9309 11.341 13.8078 11.464C13.6847 11.5871 13.5178 11.6562 13.3438 11.6562H10.4388Z" fill="#7F5400"/>
</g>
<defs>
<clipPath id="clip0_845_11390">
<rect width="14" height="14" fill="white" transform="translate(0 0.5)"/>
</clipPath>
</defs>
</svg>
