<svg width="296" height="60" viewBox="0 0 296 60" fill="none" xmlns="http://www.w3.org/2000/svg">
<mask id="path-1-inside-1_246_34974" fill="white">
<path d="M0 0H296V60H0V0Z"/>
</mask>
<path d="M0 0H296V60H0V0Z" fill="white"/>
<path d="M296 59H0V61H296V59Z" fill="#EBEBE4" mask="url(#path-1-inside-1_246_34974)"/>
<g clip-path="url(#clip0_246_34974)">
<path fill-rule="evenodd" clip-rule="evenodd" d="M15 30C15 26.8174 16.2643 23.7652 18.5147 21.5147C20.7652 19.2643 23.8174 18 27 18C30.1826 18 33.2348 19.2643 35.4853 21.5147C37.7357 23.7652 39 26.8174 39 30C39 33.1826 37.7357 36.2348 35.4853 38.4853C33.2348 40.7357 30.1826 42 27 42C23.8174 42 20.7652 40.7357 18.5147 38.4853C16.2643 36.2348 15 33.1826 15 30ZM26.3152 35.136L33.224 26.4992L31.976 25.5008L26.0848 32.8624L21.912 29.3856L20.888 30.6144L26.3152 35.136Z" fill="#149000"/>
</g>
<path d="M57.0442 32.244L55.2442 27.58C55.1909 27.4413 55.1349 27.2813 55.0762 27.1C55.0175 26.9133 54.9615 26.716 54.9082 26.508C54.7962 26.94 54.6815 27.3 54.5642 27.588L52.7642 32.244H57.0442ZM60.2762 36.5H59.0762C58.9375 36.5 58.8255 36.4653 58.7402 36.396C58.6549 36.3267 58.5909 36.2387 58.5482 36.132L57.4762 33.364H52.3322L51.2602 36.132C51.2282 36.228 51.1669 36.3133 51.0762 36.388C50.9855 36.4627 50.8735 36.5 50.7402 36.5H49.5402L54.1242 25.036H55.6922L60.2762 36.5ZM66.8696 29.836C66.8269 29.8947 66.7842 29.94 66.7416 29.972C66.6989 30.004 66.6402 30.02 66.5656 30.02C66.4856 30.02 66.3976 29.988 66.3016 29.924C66.2056 29.8547 66.0856 29.78 65.9416 29.7C65.8029 29.62 65.6296 29.548 65.4216 29.484C65.2189 29.4147 64.9682 29.38 64.6696 29.38C64.2696 29.38 63.9176 29.452 63.6136 29.596C63.3096 29.7347 63.0536 29.9373 62.8456 30.204C62.6429 30.4707 62.4882 30.7933 62.3816 31.172C62.2802 31.5507 62.2296 31.9747 62.2296 32.444C62.2296 32.9347 62.2856 33.372 62.3976 33.756C62.5096 34.1347 62.6669 34.4547 62.8696 34.716C63.0776 34.972 63.3256 35.1693 63.6136 35.308C63.9069 35.4413 64.2349 35.508 64.5976 35.508C64.9442 35.508 65.2296 35.468 65.4536 35.388C65.6776 35.3027 65.8616 35.2093 66.0056 35.108C66.1549 35.0067 66.2776 34.916 66.3736 34.836C66.4749 34.7507 66.5736 34.708 66.6696 34.708C66.7869 34.708 66.8776 34.7533 66.9416 34.844L67.3416 35.364C67.1656 35.5827 66.9656 35.7693 66.7416 35.924C66.5176 36.0787 66.2749 36.2093 66.0136 36.316C65.7576 36.4173 65.4882 36.492 65.2056 36.54C64.9229 36.588 64.6349 36.612 64.3416 36.612C63.8349 36.612 63.3629 36.5187 62.9256 36.332C62.4936 36.1453 62.1176 35.876 61.7976 35.524C61.4776 35.1667 61.2269 34.7293 61.0456 34.212C60.8642 33.6947 60.7736 33.1053 60.7736 32.444C60.7736 31.8413 60.8562 31.284 61.0216 30.772C61.1922 30.26 61.4376 29.82 61.7576 29.452C62.0829 29.0787 62.4802 28.788 62.9496 28.58C63.4242 28.372 63.9682 28.268 64.5816 28.268C65.1522 28.268 65.6536 28.3613 66.0856 28.548C66.5229 28.7293 66.9096 28.988 67.2456 29.324L66.8696 29.836ZM74.3696 29.836C74.3269 29.8947 74.2842 29.94 74.2416 29.972C74.1989 30.004 74.1402 30.02 74.0656 30.02C73.9856 30.02 73.8976 29.988 73.8016 29.924C73.7056 29.8547 73.5856 29.78 73.4416 29.7C73.3029 29.62 73.1296 29.548 72.9216 29.484C72.7189 29.4147 72.4682 29.38 72.1696 29.38C71.7696 29.38 71.4176 29.452 71.1136 29.596C70.8096 29.7347 70.5536 29.9373 70.3456 30.204C70.1429 30.4707 69.9882 30.7933 69.8816 31.172C69.7802 31.5507 69.7296 31.9747 69.7296 32.444C69.7296 32.9347 69.7856 33.372 69.8976 33.756C70.0096 34.1347 70.1669 34.4547 70.3696 34.716C70.5776 34.972 70.8256 35.1693 71.1136 35.308C71.4069 35.4413 71.7349 35.508 72.0976 35.508C72.4442 35.508 72.7296 35.468 72.9536 35.388C73.1776 35.3027 73.3616 35.2093 73.5056 35.108C73.6549 35.0067 73.7776 34.916 73.8736 34.836C73.9749 34.7507 74.0736 34.708 74.1696 34.708C74.2869 34.708 74.3776 34.7533 74.4416 34.844L74.8416 35.364C74.6656 35.5827 74.4656 35.7693 74.2416 35.924C74.0176 36.0787 73.7749 36.2093 73.5136 36.316C73.2576 36.4173 72.9882 36.492 72.7056 36.54C72.4229 36.588 72.1349 36.612 71.8416 36.612C71.3349 36.612 70.8629 36.5187 70.4256 36.332C69.9936 36.1453 69.6176 35.876 69.2976 35.524C68.9776 35.1667 68.7269 34.7293 68.5456 34.212C68.3642 33.6947 68.2736 33.1053 68.2736 32.444C68.2736 31.8413 68.3562 31.284 68.5216 30.772C68.6922 30.26 68.9376 29.82 69.2576 29.452C69.5829 29.0787 69.9802 28.788 70.4496 28.58C70.9242 28.372 71.4682 28.268 72.0816 28.268C72.6522 28.268 73.1536 28.3613 73.5856 28.548C74.0229 28.7293 74.4096 28.988 74.7456 29.324L74.3696 29.836ZM81.6536 31.564C81.6536 31.2333 81.6056 30.932 81.5096 30.66C81.4189 30.3827 81.2829 30.1453 81.1016 29.948C80.9256 29.7453 80.7096 29.5907 80.4536 29.484C80.1976 29.372 79.9069 29.316 79.5816 29.316C78.8989 29.316 78.3576 29.516 77.9576 29.916C77.5629 30.3107 77.3176 30.86 77.2216 31.564H81.6536ZM82.8056 35.364C82.6296 35.5773 82.4189 35.764 82.1736 35.924C81.9282 36.0787 81.6642 36.2067 81.3816 36.308C81.1042 36.4093 80.8162 36.484 80.5176 36.532C80.2189 36.5853 79.9229 36.612 79.6296 36.612C79.0696 36.612 78.5522 36.5187 78.0776 36.332C77.6082 36.14 77.2002 35.8627 76.8536 35.5C76.5122 35.132 76.2456 34.6787 76.0536 34.14C75.8616 33.6013 75.7656 32.9827 75.7656 32.284C75.7656 31.7187 75.8509 31.1907 76.0216 30.7C76.1976 30.2093 76.4482 29.7853 76.7736 29.428C77.0989 29.0653 77.4962 28.7827 77.9656 28.58C78.4349 28.372 78.9629 28.268 79.5496 28.268C80.0349 28.268 80.4829 28.3507 80.8936 28.516C81.3096 28.676 81.6669 28.9107 81.9656 29.22C82.2696 29.524 82.5069 29.9027 82.6776 30.356C82.8482 30.804 82.9336 31.316 82.9336 31.892C82.9336 32.116 82.9096 32.2653 82.8616 32.34C82.8136 32.4147 82.7229 32.452 82.5896 32.452H77.1736C77.1896 32.964 77.2589 33.4093 77.3816 33.788C77.5096 34.1667 77.6856 34.484 77.9096 34.74C78.1336 34.9907 78.4002 35.18 78.7096 35.308C79.0189 35.4307 79.3656 35.492 79.7496 35.492C80.1069 35.492 80.4136 35.452 80.6696 35.372C80.9309 35.2867 81.1549 35.196 81.3416 35.1C81.5282 35.004 81.6829 34.916 81.8056 34.836C81.9336 34.7507 82.0429 34.708 82.1336 34.708C82.2509 34.708 82.3416 34.7533 82.4056 34.844L82.8056 35.364ZM86.1147 34.548C86.376 34.9 86.6614 35.148 86.9707 35.292C87.28 35.436 87.6267 35.508 88.0107 35.508C88.768 35.508 89.3494 35.2387 89.7547 34.7C90.16 34.1613 90.3627 33.3933 90.3627 32.396C90.3627 31.868 90.3147 31.4147 90.2187 31.036C90.128 30.6573 89.9947 30.348 89.8187 30.108C89.6427 29.8627 89.4267 29.684 89.1707 29.572C88.9147 29.46 88.624 29.404 88.2987 29.404C87.8347 29.404 87.4267 29.5107 87.0747 29.724C86.728 29.9373 86.408 30.2387 86.1147 30.628V34.548ZM86.0427 29.652C86.384 29.2307 86.7787 28.892 87.2267 28.636C87.6747 28.38 88.1867 28.252 88.7627 28.252C89.232 28.252 89.656 28.3427 90.0347 28.524C90.4134 28.7 90.736 28.964 91.0027 29.316C91.2694 29.6627 91.4747 30.0947 91.6187 30.612C91.7627 31.1293 91.8347 31.724 91.8347 32.396C91.8347 32.9933 91.7547 33.5507 91.5947 34.068C91.4347 34.58 91.2027 35.0253 90.8987 35.404C90.6 35.7773 90.232 36.0733 89.7947 36.292C89.3627 36.5053 88.8747 36.612 88.3307 36.612C87.8347 36.612 87.408 36.5293 87.0507 36.364C86.6987 36.1933 86.3867 35.9587 86.1147 35.66V39.244H84.6827V28.396H85.5387C85.7414 28.396 85.8667 28.4947 85.9147 28.692L86.0427 29.652ZM96.0301 36.628C95.3901 36.628 94.8967 36.4493 94.5501 36.092C94.2087 35.7347 94.0381 35.22 94.0381 34.548V29.588H93.0621C92.9767 29.588 92.9047 29.564 92.8461 29.516C92.7874 29.4627 92.7581 29.3827 92.7581 29.276V28.708L94.0861 28.54L94.4141 26.036C94.4301 25.956 94.4647 25.892 94.5181 25.844C94.5767 25.7907 94.6514 25.764 94.7421 25.764H95.4621V28.556H97.8061V29.588H95.4621V34.452C95.4621 34.7933 95.5447 35.0467 95.7101 35.212C95.8754 35.3773 96.0887 35.46 96.3501 35.46C96.4994 35.46 96.6274 35.4413 96.7341 35.404C96.8461 35.3613 96.9421 35.316 97.0221 35.268C97.1021 35.22 97.1687 35.1773 97.2221 35.14C97.2807 35.0973 97.3314 35.076 97.3741 35.076C97.4487 35.076 97.5154 35.1213 97.5741 35.212L97.9901 35.892C97.7447 36.1213 97.4487 36.3027 97.1021 36.436C96.7554 36.564 96.3981 36.628 96.0301 36.628ZM104.654 31.564C104.654 31.2333 104.606 30.932 104.51 30.66C104.419 30.3827 104.283 30.1453 104.102 29.948C103.926 29.7453 103.71 29.5907 103.454 29.484C103.198 29.372 102.907 29.316 102.582 29.316C101.899 29.316 101.358 29.516 100.958 29.916C100.563 30.3107 100.318 30.86 100.222 31.564H104.654ZM105.806 35.364C105.63 35.5773 105.419 35.764 105.174 35.924C104.928 36.0787 104.664 36.2067 104.382 36.308C104.104 36.4093 103.816 36.484 103.518 36.532C103.219 36.5853 102.923 36.612 102.63 36.612C102.07 36.612 101.552 36.5187 101.078 36.332C100.608 36.14 100.2 35.8627 99.8536 35.5C99.5122 35.132 99.2456 34.6787 99.0536 34.14C98.8616 33.6013 98.7656 32.9827 98.7656 32.284C98.7656 31.7187 98.8509 31.1907 99.0216 30.7C99.1976 30.2093 99.4482 29.7853 99.7736 29.428C100.099 29.0653 100.496 28.7827 100.966 28.58C101.435 28.372 101.963 28.268 102.55 28.268C103.035 28.268 103.483 28.3507 103.894 28.516C104.31 28.676 104.667 28.9107 104.966 29.22C105.27 29.524 105.507 29.9027 105.678 30.356C105.848 30.804 105.934 31.316 105.934 31.892C105.934 32.116 105.91 32.2653 105.862 32.34C105.814 32.4147 105.723 32.452 105.59 32.452H100.174C100.19 32.964 100.259 33.4093 100.382 33.788C100.51 34.1667 100.686 34.484 100.91 34.74C101.134 34.9907 101.4 35.18 101.71 35.308C102.019 35.4307 102.366 35.492 102.75 35.492C103.107 35.492 103.414 35.452 103.67 35.372C103.931 35.2867 104.155 35.196 104.342 35.1C104.528 35.004 104.683 34.916 104.806 34.836C104.934 34.7507 105.043 34.708 105.134 34.708C105.251 34.708 105.342 34.7533 105.406 34.844L105.806 35.364ZM112.963 30.324C112.696 29.9667 112.408 29.7187 112.099 29.58C111.789 29.436 111.443 29.364 111.059 29.364C110.307 29.364 109.728 29.6333 109.323 30.172C108.917 30.7107 108.715 31.4787 108.715 32.476C108.715 33.004 108.76 33.4573 108.851 33.836C108.941 34.2093 109.075 34.5187 109.251 34.764C109.427 35.004 109.643 35.18 109.899 35.292C110.155 35.404 110.445 35.46 110.771 35.46C111.24 35.46 111.648 35.3533 111.995 35.14C112.347 34.9267 112.669 34.6253 112.963 34.236V30.324ZM114.387 24.716V36.5H113.539C113.336 36.5 113.208 36.4013 113.155 36.204L113.027 35.22C112.68 35.636 112.285 35.972 111.843 36.228C111.4 36.484 110.888 36.612 110.307 36.612C109.843 36.612 109.421 36.524 109.043 36.348C108.664 36.1667 108.341 35.9027 108.075 35.556C107.808 35.2093 107.603 34.7773 107.459 34.26C107.315 33.7427 107.243 33.148 107.243 32.476C107.243 31.8787 107.323 31.324 107.483 30.812C107.643 30.2947 107.872 29.8467 108.171 29.468C108.469 29.0893 108.835 28.7933 109.267 28.58C109.704 28.3613 110.195 28.252 110.739 28.252C111.235 28.252 111.659 28.3373 112.011 28.508C112.368 28.6733 112.685 28.9053 112.963 29.204V24.716H114.387Z" fill="#4C4C4C"/>
<defs>
<clipPath id="clip0_246_34974">
<rect width="24" height="24" fill="white" transform="translate(15 18)"/>
</clipPath>
</defs>
</svg>
