<svg width="150" height="39" viewBox="0 0 150 39" fill="none" xmlns="http://www.w3.org/2000/svg">
<mask id="path-1-inside-1_306_11487" fill="white">
<path d="M0 0H150V39H0V0Z"/>
</mask>
<path d="M0 0H150V39H0V0Z" fill="white"/>
<path d="M150 38H0V40H150V38Z" fill="#F2F4F8" mask="url(#path-1-inside-1_306_11487)"/>
<circle cx="21" cy="19.5" r="6" fill="#46B612"/>
<path d="M41.0442 21.744L39.2442 17.08C39.1909 16.9413 39.1349 16.7813 39.0762 16.6C39.0175 16.4133 38.9615 16.216 38.9082 16.008C38.7962 16.44 38.6815 16.8 38.5642 17.088L36.7642 21.744H41.0442ZM44.2762 26H43.0762C42.9375 26 42.8255 25.9653 42.7402 25.896C42.6549 25.8267 42.5909 25.7387 42.5482 25.632L41.4762 22.864H36.3322L35.2602 25.632C35.2282 25.728 35.1669 25.8133 35.0762 25.888C34.9855 25.9627 34.8735 26 34.7402 26H33.5402L38.1242 14.536H39.6922L44.2762 26ZM50.8696 19.336C50.8269 19.3947 50.7842 19.44 50.7416 19.472C50.6989 19.504 50.6402 19.52 50.5656 19.52C50.4856 19.52 50.3976 19.488 50.3016 19.424C50.2056 19.3547 50.0856 19.28 49.9416 19.2C49.8029 19.12 49.6296 19.048 49.4216 18.984C49.2189 18.9147 48.9682 18.88 48.6696 18.88C48.2696 18.88 47.9176 18.952 47.6136 19.096C47.3096 19.2347 47.0536 19.4373 46.8456 19.704C46.6429 19.9707 46.4882 20.2933 46.3816 20.672C46.2802 21.0507 46.2296 21.4747 46.2296 21.944C46.2296 22.4347 46.2856 22.872 46.3976 23.256C46.5096 23.6347 46.6669 23.9547 46.8696 24.216C47.0776 24.472 47.3256 24.6693 47.6136 24.808C47.9069 24.9413 48.2349 25.008 48.5976 25.008C48.9442 25.008 49.2296 24.968 49.4536 24.888C49.6776 24.8027 49.8616 24.7093 50.0056 24.608C50.1549 24.5067 50.2776 24.416 50.3736 24.336C50.4749 24.2507 50.5736 24.208 50.6696 24.208C50.7869 24.208 50.8776 24.2533 50.9416 24.344L51.3416 24.864C51.1656 25.0827 50.9656 25.2693 50.7416 25.424C50.5176 25.5787 50.2749 25.7093 50.0136 25.816C49.7576 25.9173 49.4882 25.992 49.2056 26.04C48.9229 26.088 48.6349 26.112 48.3416 26.112C47.8349 26.112 47.3629 26.0187 46.9256 25.832C46.4936 25.6453 46.1176 25.376 45.7976 25.024C45.4776 24.6667 45.2269 24.2293 45.0456 23.712C44.8642 23.1947 44.7736 22.6053 44.7736 21.944C44.7736 21.3413 44.8562 20.784 45.0216 20.272C45.1922 19.76 45.4376 19.32 45.7576 18.952C46.0829 18.5787 46.4802 18.288 46.9496 18.08C47.4242 17.872 47.9682 17.768 48.5816 17.768C49.1522 17.768 49.6536 17.8613 50.0856 18.048C50.5229 18.2293 50.9096 18.488 51.2456 18.824L50.8696 19.336ZM58.3696 19.336C58.3269 19.3947 58.2842 19.44 58.2416 19.472C58.1989 19.504 58.1402 19.52 58.0656 19.52C57.9856 19.52 57.8976 19.488 57.8016 19.424C57.7056 19.3547 57.5856 19.28 57.4416 19.2C57.3029 19.12 57.1296 19.048 56.9216 18.984C56.7189 18.9147 56.4682 18.88 56.1696 18.88C55.7696 18.88 55.4176 18.952 55.1136 19.096C54.8096 19.2347 54.5536 19.4373 54.3456 19.704C54.1429 19.9707 53.9882 20.2933 53.8816 20.672C53.7802 21.0507 53.7296 21.4747 53.7296 21.944C53.7296 22.4347 53.7856 22.872 53.8976 23.256C54.0096 23.6347 54.1669 23.9547 54.3696 24.216C54.5776 24.472 54.8256 24.6693 55.1136 24.808C55.4069 24.9413 55.7349 25.008 56.0976 25.008C56.4442 25.008 56.7296 24.968 56.9536 24.888C57.1776 24.8027 57.3616 24.7093 57.5056 24.608C57.6549 24.5067 57.7776 24.416 57.8736 24.336C57.9749 24.2507 58.0736 24.208 58.1696 24.208C58.2869 24.208 58.3776 24.2533 58.4416 24.344L58.8416 24.864C58.6656 25.0827 58.4656 25.2693 58.2416 25.424C58.0176 25.5787 57.7749 25.7093 57.5136 25.816C57.2576 25.9173 56.9882 25.992 56.7056 26.04C56.4229 26.088 56.1349 26.112 55.8416 26.112C55.3349 26.112 54.8629 26.0187 54.4256 25.832C53.9936 25.6453 53.6176 25.376 53.2976 25.024C52.9776 24.6667 52.7269 24.2293 52.5456 23.712C52.3642 23.1947 52.2736 22.6053 52.2736 21.944C52.2736 21.3413 52.3562 20.784 52.5216 20.272C52.6922 19.76 52.9376 19.32 53.2576 18.952C53.5829 18.5787 53.9802 18.288 54.4496 18.08C54.9242 17.872 55.4682 17.768 56.0816 17.768C56.6522 17.768 57.1536 17.8613 57.5856 18.048C58.0229 18.2293 58.4096 18.488 58.7456 18.824L58.3696 19.336ZM65.6536 21.064C65.6536 20.7333 65.6056 20.432 65.5096 20.16C65.4189 19.8827 65.2829 19.6453 65.1016 19.448C64.9256 19.2453 64.7096 19.0907 64.4536 18.984C64.1976 18.872 63.9069 18.816 63.5816 18.816C62.8989 18.816 62.3576 19.016 61.9576 19.416C61.5629 19.8107 61.3176 20.36 61.2216 21.064H65.6536ZM66.8056 24.864C66.6296 25.0773 66.4189 25.264 66.1736 25.424C65.9282 25.5787 65.6642 25.7067 65.3816 25.808C65.1042 25.9093 64.8162 25.984 64.5176 26.032C64.2189 26.0853 63.9229 26.112 63.6296 26.112C63.0696 26.112 62.5522 26.0187 62.0776 25.832C61.6082 25.64 61.2002 25.3627 60.8536 25C60.5122 24.632 60.2456 24.1787 60.0536 23.64C59.8616 23.1013 59.7656 22.4827 59.7656 21.784C59.7656 21.2187 59.8509 20.6907 60.0216 20.2C60.1976 19.7093 60.4482 19.2853 60.7736 18.928C61.0989 18.5653 61.4962 18.2827 61.9656 18.08C62.4349 17.872 62.9629 17.768 63.5496 17.768C64.0349 17.768 64.4829 17.8507 64.8936 18.016C65.3096 18.176 65.6669 18.4107 65.9656 18.72C66.2696 19.024 66.5069 19.4027 66.6776 19.856C66.8482 20.304 66.9336 20.816 66.9336 21.392C66.9336 21.616 66.9096 21.7653 66.8616 21.84C66.8136 21.9147 66.7229 21.952 66.5896 21.952H61.1736C61.1896 22.464 61.2589 22.9093 61.3816 23.288C61.5096 23.6667 61.6856 23.984 61.9096 24.24C62.1336 24.4907 62.4002 24.68 62.7096 24.808C63.0189 24.9307 63.3656 24.992 63.7496 24.992C64.1069 24.992 64.4136 24.952 64.6696 24.872C64.9309 24.7867 65.1549 24.696 65.3416 24.6C65.5282 24.504 65.6829 24.416 65.8056 24.336C65.9336 24.2507 66.0429 24.208 66.1336 24.208C66.2509 24.208 66.3416 24.2533 66.4056 24.344L66.8056 24.864ZM70.1147 24.048C70.376 24.4 70.6614 24.648 70.9707 24.792C71.28 24.936 71.6267 25.008 72.0107 25.008C72.768 25.008 73.3494 24.7387 73.7547 24.2C74.16 23.6613 74.3627 22.8933 74.3627 21.896C74.3627 21.368 74.3147 20.9147 74.2187 20.536C74.128 20.1573 73.9947 19.848 73.8187 19.608C73.6427 19.3627 73.4267 19.184 73.1707 19.072C72.9147 18.96 72.624 18.904 72.2987 18.904C71.8347 18.904 71.4267 19.0107 71.0747 19.224C70.728 19.4373 70.408 19.7387 70.1147 20.128V24.048ZM70.0427 19.152C70.384 18.7307 70.7787 18.392 71.2267 18.136C71.6747 17.88 72.1867 17.752 72.7627 17.752C73.232 17.752 73.656 17.8427 74.0347 18.024C74.4134 18.2 74.736 18.464 75.0027 18.816C75.2694 19.1627 75.4747 19.5947 75.6187 20.112C75.7627 20.6293 75.8347 21.224 75.8347 21.896C75.8347 22.4933 75.7547 23.0507 75.5947 23.568C75.4347 24.08 75.2027 24.5253 74.8987 24.904C74.6 25.2773 74.232 25.5733 73.7947 25.792C73.3627 26.0053 72.8747 26.112 72.3307 26.112C71.8347 26.112 71.408 26.0293 71.0507 25.864C70.6987 25.6933 70.3867 25.4587 70.1147 25.16V28.744H68.6827V17.896H69.5387C69.7414 17.896 69.8667 17.9947 69.9147 18.192L70.0427 19.152ZM80.0301 26.128C79.3901 26.128 78.8967 25.9493 78.5501 25.592C78.2087 25.2347 78.0381 24.72 78.0381 24.048V19.088H77.0621C76.9767 19.088 76.9047 19.064 76.8461 19.016C76.7874 18.9627 76.7581 18.8827 76.7581 18.776V18.208L78.0861 18.04L78.4141 15.536C78.4301 15.456 78.4647 15.392 78.5181 15.344C78.5767 15.2907 78.6514 15.264 78.7421 15.264H79.4621V18.056H81.8061V19.088H79.4621V23.952C79.4621 24.2933 79.5447 24.5467 79.7101 24.712C79.8754 24.8773 80.0887 24.96 80.3501 24.96C80.4994 24.96 80.6274 24.9413 80.7341 24.904C80.8461 24.8613 80.9421 24.816 81.0221 24.768C81.1021 24.72 81.1687 24.6773 81.2221 24.64C81.2807 24.5973 81.3314 24.576 81.3741 24.576C81.4487 24.576 81.5154 24.6213 81.5741 24.712L81.9901 25.392C81.7447 25.6213 81.4487 25.8027 81.1021 25.936C80.7554 26.064 80.3981 26.128 80.0301 26.128ZM88.6536 21.064C88.6536 20.7333 88.6056 20.432 88.5096 20.16C88.4189 19.8827 88.2829 19.6453 88.1016 19.448C87.9256 19.2453 87.7096 19.0907 87.4536 18.984C87.1976 18.872 86.9069 18.816 86.5816 18.816C85.8989 18.816 85.3576 19.016 84.9576 19.416C84.5629 19.8107 84.3176 20.36 84.2216 21.064H88.6536ZM89.8056 24.864C89.6296 25.0773 89.4189 25.264 89.1736 25.424C88.9282 25.5787 88.6642 25.7067 88.3816 25.808C88.1042 25.9093 87.8162 25.984 87.5176 26.032C87.2189 26.0853 86.9229 26.112 86.6296 26.112C86.0696 26.112 85.5522 26.0187 85.0776 25.832C84.6082 25.64 84.2002 25.3627 83.8536 25C83.5122 24.632 83.2456 24.1787 83.0536 23.64C82.8616 23.1013 82.7656 22.4827 82.7656 21.784C82.7656 21.2187 82.8509 20.6907 83.0216 20.2C83.1976 19.7093 83.4482 19.2853 83.7736 18.928C84.0989 18.5653 84.4962 18.2827 84.9656 18.08C85.4349 17.872 85.9629 17.768 86.5496 17.768C87.0349 17.768 87.4829 17.8507 87.8936 18.016C88.3096 18.176 88.6669 18.4107 88.9656 18.72C89.2696 19.024 89.5069 19.4027 89.6776 19.856C89.8482 20.304 89.9336 20.816 89.9336 21.392C89.9336 21.616 89.9096 21.7653 89.8616 21.84C89.8136 21.9147 89.7229 21.952 89.5896 21.952H84.1736C84.1896 22.464 84.2589 22.9093 84.3816 23.288C84.5096 23.6667 84.6856 23.984 84.9096 24.24C85.1336 24.4907 85.4002 24.68 85.7096 24.808C86.0189 24.9307 86.3656 24.992 86.7496 24.992C87.1069 24.992 87.4136 24.952 87.6696 24.872C87.9309 24.7867 88.1549 24.696 88.3416 24.6C88.5282 24.504 88.6829 24.416 88.8056 24.336C88.9336 24.2507 89.0429 24.208 89.1336 24.208C89.2509 24.208 89.3416 24.2533 89.4056 24.344L89.8056 24.864ZM96.9627 19.824C96.696 19.4667 96.408 19.2187 96.0987 19.08C95.7894 18.936 95.4427 18.864 95.0587 18.864C94.3067 18.864 93.728 19.1333 93.3227 19.672C92.9174 20.2107 92.7147 20.9787 92.7147 21.976C92.7147 22.504 92.76 22.9573 92.8507 23.336C92.9414 23.7093 93.0747 24.0187 93.2507 24.264C93.4267 24.504 93.6427 24.68 93.8987 24.792C94.1547 24.904 94.4454 24.96 94.7707 24.96C95.24 24.96 95.648 24.8533 95.9947 24.64C96.3467 24.4267 96.6694 24.1253 96.9627 23.736V19.824ZM98.3867 14.216V26H97.5387C97.336 26 97.208 25.9013 97.1547 25.704L97.0267 24.72C96.68 25.136 96.2854 25.472 95.8427 25.728C95.4 25.984 94.888 26.112 94.3067 26.112C93.8427 26.112 93.4214 26.024 93.0427 25.848C92.664 25.6667 92.3414 25.4027 92.0747 25.056C91.808 24.7093 91.6027 24.2773 91.4587 23.76C91.3147 23.2427 91.2427 22.648 91.2427 21.976C91.2427 21.3787 91.3227 20.824 91.4827 20.312C91.6427 19.7947 91.872 19.3467 92.1707 18.968C92.4694 18.5893 92.8347 18.2933 93.2667 18.08C93.704 17.8613 94.1947 17.752 94.7387 17.752C95.2347 17.752 95.6587 17.8373 96.0107 18.008C96.368 18.1733 96.6854 18.4053 96.9627 18.704V14.216H98.3867Z" fill="#4C4C4C"/>
</svg>
