<svg width="150" height="39" viewBox="0 0 150 39" fill="none" xmlns="http://www.w3.org/2000/svg">
<mask id="path-1-inside-1_324_37195" fill="white">
<path d="M0 0H150V39H0V0Z"/>
</mask>
<path d="M0 0H150V39H0V0Z" fill="white"/>
<path d="M150 38H0V40H150V38Z" fill="#F2F4F8" mask="url(#path-1-inside-1_324_37195)"/>
<circle cx="21" cy="19.5" r="6" fill="#F03737"/>
<path d="M44.8453 20.272C44.8453 21.1307 44.7093 21.912 44.4373 22.616C44.1653 23.32 43.7813 23.9227 43.2853 24.424C42.7893 24.9253 42.192 25.3147 41.4933 25.592C40.8 25.864 40.032 26 39.1893 26H34.9093V14.536H39.1893C40.032 14.536 40.8 14.6747 41.4933 14.952C42.192 15.224 42.7893 15.6133 43.2853 16.12C43.7813 16.6213 44.1653 17.224 44.4373 17.928C44.7093 18.632 44.8453 19.4133 44.8453 20.272ZM43.2533 20.272C43.2533 19.568 43.1573 18.9387 42.9653 18.384C42.7733 17.8293 42.5013 17.36 42.1493 16.976C41.7973 16.592 41.3706 16.2987 40.8693 16.096C40.368 15.8933 39.808 15.792 39.1893 15.792H36.4613V24.744H39.1893C39.808 24.744 40.368 24.6427 40.8693 24.44C41.3706 24.2373 41.7973 23.9467 42.1493 23.568C42.5013 23.184 42.7733 22.7147 42.9653 22.16C43.1573 21.6053 43.2533 20.976 43.2533 20.272ZM52.0598 21.064C52.0598 20.7333 52.0118 20.432 51.9158 20.16C51.8251 19.8827 51.6891 19.6453 51.5078 19.448C51.3318 19.2453 51.1158 19.0907 50.8598 18.984C50.6038 18.872 50.3131 18.816 49.9878 18.816C49.3051 18.816 48.7638 19.016 48.3638 19.416C47.9691 19.8107 47.7238 20.36 47.6278 21.064H52.0598ZM53.2118 24.864C53.0358 25.0773 52.8251 25.264 52.5798 25.424C52.3345 25.5787 52.0705 25.7067 51.7878 25.808C51.5105 25.9093 51.2225 25.984 50.9238 26.032C50.6251 26.0853 50.3291 26.112 50.0358 26.112C49.4758 26.112 48.9585 26.0187 48.4838 25.832C48.0145 25.64 47.6065 25.3627 47.2598 25C46.9185 24.632 46.6518 24.1787 46.4598 23.64C46.2678 23.1013 46.1718 22.4827 46.1718 21.784C46.1718 21.2187 46.2571 20.6907 46.4278 20.2C46.6038 19.7093 46.8545 19.2853 47.1798 18.928C47.5051 18.5653 47.9025 18.2827 48.3718 18.08C48.8411 17.872 49.3691 17.768 49.9558 17.768C50.4411 17.768 50.8891 17.8507 51.2998 18.016C51.7158 18.176 52.0731 18.4107 52.3718 18.72C52.6758 19.024 52.9131 19.4027 53.0838 19.856C53.2545 20.304 53.3398 20.816 53.3398 21.392C53.3398 21.616 53.3158 21.7653 53.2678 21.84C53.2198 21.9147 53.1291 21.952 52.9958 21.952H47.5798C47.5958 22.464 47.6651 22.9093 47.7878 23.288C47.9158 23.6667 48.0918 23.984 48.3158 24.24C48.5398 24.4907 48.8065 24.68 49.1158 24.808C49.4251 24.9307 49.7718 24.992 50.1558 24.992C50.5131 24.992 50.8198 24.952 51.0758 24.872C51.3371 24.7867 51.5611 24.696 51.7478 24.6C51.9345 24.504 52.0891 24.416 52.2118 24.336C52.3398 24.2507 52.4491 24.208 52.5398 24.208C52.6571 24.208 52.7478 24.2533 52.8118 24.344L53.2118 24.864ZM60.7289 19.336C60.6863 19.3947 60.6436 19.44 60.6009 19.472C60.5583 19.504 60.4996 19.52 60.4249 19.52C60.3449 19.52 60.2569 19.488 60.1609 19.424C60.0649 19.3547 59.9449 19.28 59.8009 19.2C59.6623 19.12 59.4889 19.048 59.2809 18.984C59.0783 18.9147 58.8276 18.88 58.5289 18.88C58.1289 18.88 57.7769 18.952 57.4729 19.096C57.1689 19.2347 56.9129 19.4373 56.7049 19.704C56.5023 19.9707 56.3476 20.2933 56.2409 20.672C56.1396 21.0507 56.0889 21.4747 56.0889 21.944C56.0889 22.4347 56.1449 22.872 56.2569 23.256C56.3689 23.6347 56.5263 23.9547 56.7289 24.216C56.9369 24.472 57.1849 24.6693 57.4729 24.808C57.7663 24.9413 58.0943 25.008 58.4569 25.008C58.8036 25.008 59.0889 24.968 59.3129 24.888C59.5369 24.8027 59.7209 24.7093 59.8649 24.608C60.0143 24.5067 60.1369 24.416 60.2329 24.336C60.3343 24.2507 60.4329 24.208 60.5289 24.208C60.6463 24.208 60.7369 24.2533 60.8009 24.344L61.2009 24.864C61.0249 25.0827 60.8249 25.2693 60.6009 25.424C60.3769 25.5787 60.1343 25.7093 59.8729 25.816C59.6169 25.9173 59.3476 25.992 59.0649 26.04C58.7823 26.088 58.4943 26.112 58.2009 26.112C57.6943 26.112 57.2223 26.0187 56.7849 25.832C56.3529 25.6453 55.9769 25.376 55.6569 25.024C55.3369 24.6667 55.0863 24.2293 54.9049 23.712C54.7236 23.1947 54.6329 22.6053 54.6329 21.944C54.6329 21.3413 54.7156 20.784 54.8809 20.272C55.0516 19.76 55.2969 19.32 55.6169 18.952C55.9423 18.5787 56.3396 18.288 56.8089 18.08C57.2836 17.872 57.8276 17.768 58.4409 17.768C59.0116 17.768 59.5129 17.8613 59.9449 18.048C60.3823 18.2293 60.7689 18.488 61.1049 18.824L60.7289 19.336ZM64.2016 14.216V26H62.7776V14.216H64.2016ZM68.0148 17.896V26H66.5908V17.896H68.0148ZM68.3188 15.352C68.3188 15.4907 68.2895 15.6213 68.2308 15.744C68.1775 15.8613 68.1028 15.968 68.0068 16.064C67.9161 16.1547 67.8068 16.2267 67.6788 16.28C67.5561 16.3333 67.4255 16.36 67.2868 16.36C67.1481 16.36 67.0175 16.3333 66.8948 16.28C66.7775 16.2267 66.6735 16.1547 66.5828 16.064C66.4921 15.968 66.4201 15.8613 66.3668 15.744C66.3135 15.6213 66.2868 15.4907 66.2868 15.352C66.2868 15.2133 66.3135 15.0827 66.3668 14.96C66.4201 14.832 66.4921 14.7227 66.5828 14.632C66.6735 14.536 66.7775 14.4613 66.8948 14.408C67.0175 14.3547 67.1481 14.328 67.2868 14.328C67.4255 14.328 67.5561 14.3547 67.6788 14.408C67.8068 14.4613 67.9161 14.536 68.0068 14.632C68.1028 14.7227 68.1775 14.832 68.2308 14.96C68.2895 15.0827 68.3188 15.2133 68.3188 15.352ZM71.6986 19.072C71.8746 18.8747 72.0612 18.696 72.2586 18.536C72.4559 18.376 72.6639 18.24 72.8826 18.128C73.1066 18.0107 73.3412 17.9227 73.5866 17.864C73.8372 17.8 74.1066 17.768 74.3946 17.768C74.8372 17.768 75.2266 17.8427 75.5626 17.992C75.9039 18.136 76.1866 18.344 76.4106 18.616C76.6399 18.8827 76.8132 19.2053 76.9306 19.584C77.0479 19.9627 77.1066 20.3813 77.1066 20.84V26H75.6746V20.84C75.6746 20.2267 75.5332 19.752 75.2506 19.416C74.9732 19.0747 74.5492 18.904 73.9786 18.904C73.5572 18.904 73.1626 19.0053 72.7946 19.208C72.4319 19.4107 72.0959 19.6853 71.7866 20.032V26H70.3546V17.896H71.2106C71.4132 17.896 71.5386 17.9947 71.5866 18.192L71.6986 19.072ZM84.7004 21.064C84.7004 20.7333 84.6524 20.432 84.5564 20.16C84.4658 19.8827 84.3298 19.6453 84.1484 19.448C83.9724 19.2453 83.7564 19.0907 83.5004 18.984C83.2444 18.872 82.9538 18.816 82.6284 18.816C81.9458 18.816 81.4044 19.016 81.0044 19.416C80.6098 19.8107 80.3644 20.36 80.2684 21.064H84.7004ZM85.8524 24.864C85.6764 25.0773 85.4658 25.264 85.2204 25.424C84.9751 25.5787 84.7111 25.7067 84.4284 25.808C84.1511 25.9093 83.8631 25.984 83.5644 26.032C83.2658 26.0853 82.9698 26.112 82.6764 26.112C82.1164 26.112 81.5991 26.0187 81.1244 25.832C80.6551 25.64 80.2471 25.3627 79.9004 25C79.5591 24.632 79.2924 24.1787 79.1004 23.64C78.9084 23.1013 78.8124 22.4827 78.8124 21.784C78.8124 21.2187 78.8978 20.6907 79.0684 20.2C79.2444 19.7093 79.4951 19.2853 79.8204 18.928C80.1458 18.5653 80.5431 18.2827 81.0124 18.08C81.4818 17.872 82.0098 17.768 82.5964 17.768C83.0818 17.768 83.5298 17.8507 83.9404 18.016C84.3564 18.176 84.7138 18.4107 85.0124 18.72C85.3164 19.024 85.5538 19.4027 85.7244 19.856C85.8951 20.304 85.9804 20.816 85.9804 21.392C85.9804 21.616 85.9564 21.7653 85.9084 21.84C85.8604 21.9147 85.7698 21.952 85.6364 21.952H80.2204C80.2364 22.464 80.3058 22.9093 80.4284 23.288C80.5564 23.6667 80.7324 23.984 80.9564 24.24C81.1804 24.4907 81.4471 24.68 81.7564 24.808C82.0658 24.9307 82.4124 24.992 82.7964 24.992C83.1538 24.992 83.4604 24.952 83.7164 24.872C83.9778 24.7867 84.2018 24.696 84.3884 24.6C84.5751 24.504 84.7298 24.416 84.8524 24.336C84.9804 24.2507 85.0898 24.208 85.1804 24.208C85.2978 24.208 85.3884 24.2533 85.4524 24.344L85.8524 24.864ZM93.0096 19.824C92.7429 19.4667 92.4549 19.2187 92.1456 19.08C91.8362 18.936 91.4896 18.864 91.1056 18.864C90.3536 18.864 89.7749 19.1333 89.3696 19.672C88.9642 20.2107 88.7616 20.9787 88.7616 21.976C88.7616 22.504 88.8069 22.9573 88.8976 23.336C88.9882 23.7093 89.1216 24.0187 89.2976 24.264C89.4736 24.504 89.6896 24.68 89.9456 24.792C90.2016 24.904 90.4922 24.96 90.8176 24.96C91.2869 24.96 91.6949 24.8533 92.0416 24.64C92.3936 24.4267 92.7162 24.1253 93.0096 23.736V19.824ZM94.4336 14.216V26H93.5856C93.3829 26 93.2549 25.9013 93.2016 25.704L93.0736 24.72C92.7269 25.136 92.3322 25.472 91.8896 25.728C91.4469 25.984 90.9349 26.112 90.3536 26.112C89.8896 26.112 89.4682 26.024 89.0896 25.848C88.7109 25.6667 88.3882 25.4027 88.1216 25.056C87.8549 24.7093 87.6496 24.2773 87.5056 23.76C87.3616 23.2427 87.2896 22.648 87.2896 21.976C87.2896 21.3787 87.3696 20.824 87.5296 20.312C87.6896 19.7947 87.9189 19.3467 88.2176 18.968C88.5162 18.5893 88.8816 18.2933 89.3136 18.08C89.7509 17.8613 90.2416 17.752 90.7856 17.752C91.2816 17.752 91.7056 17.8373 92.0576 18.008C92.4149 18.1733 92.7322 18.4053 93.0096 18.704V14.216H94.4336Z" fill="#4C4C4C"/>
</svg>
