<svg width="150" height="39" viewBox="0 0 150 39" fill="none" xmlns="http://www.w3.org/2000/svg">
<mask id="path-1-inside-1_845_11375" fill="white">
<path d="M0 0H150V39H0V0Z"/>
</mask>
<path d="M0 0H150V39H0V0Z" fill="white"/>
<path d="M150 38H0V40H150V38Z" fill="#F2F4F8" mask="url(#path-1-inside-1_845_11375)"/>
<g clip-path="url(#clip0_845_11375)">
<path d="M22.734 20.6734L23.6753 21.6148L29.3193 15.9708L30.262 16.9134L23.6753 23.5001L19.4327 19.2574L20.3753 18.3148L21.792 19.7314L22.734 20.6728V20.6734ZM22.7353 18.7881L26.0367 15.4861L26.9767 16.4261L23.6753 19.7281L22.7353 18.7881ZM20.8507 22.5581L19.9087 23.5001L15.666 19.2574L16.6087 18.3148L17.5507 19.2568L17.55 19.2574L20.8507 22.5581V22.5581Z" fill="#46B612"/>
</g>
<path d="M48.6344 20.272C48.6344 21.1307 48.4984 21.912 48.2264 22.616C47.9544 23.32 47.5704 23.9227 47.0744 24.424C46.5784 24.9253 45.981 25.3147 45.2824 25.592C44.589 25.864 43.821 26 42.9784 26H38.6984V14.536H42.9784C43.821 14.536 44.589 14.6747 45.2824 14.952C45.981 15.224 46.5784 15.6133 47.0744 16.12C47.5704 16.6213 47.9544 17.224 48.2264 17.928C48.4984 18.632 48.6344 19.4133 48.6344 20.272ZM47.0424 20.272C47.0424 19.568 46.9464 18.9387 46.7544 18.384C46.5624 17.8293 46.2904 17.36 45.9384 16.976C45.5864 16.592 45.1597 16.2987 44.6584 16.096C44.157 15.8933 43.597 15.792 42.9784 15.792H40.2504V24.744H42.9784C43.597 24.744 44.157 24.6427 44.6584 24.44C45.1597 24.2373 45.5864 23.9467 45.9384 23.568C46.2904 23.184 46.5624 22.7147 46.7544 22.16C46.9464 21.6053 47.0424 20.976 47.0424 20.272ZM55.8489 21.064C55.8489 20.7333 55.8009 20.432 55.7049 20.16C55.6142 19.8827 55.4782 19.6453 55.2969 19.448C55.1209 19.2453 54.9049 19.0907 54.6489 18.984C54.3929 18.872 54.1022 18.816 53.7769 18.816C53.0942 18.816 52.5529 19.016 52.1529 19.416C51.7582 19.8107 51.5129 20.36 51.4169 21.064H55.8489ZM57.0009 24.864C56.8249 25.0773 56.6142 25.264 56.3689 25.424C56.1235 25.5787 55.8595 25.7067 55.5769 25.808C55.2995 25.9093 55.0115 25.984 54.7129 26.032C54.4142 26.0853 54.1182 26.112 53.8249 26.112C53.2649 26.112 52.7475 26.0187 52.2729 25.832C51.8035 25.64 51.3955 25.3627 51.0489 25C50.7075 24.632 50.4409 24.1787 50.2489 23.64C50.0569 23.1013 49.9609 22.4827 49.9609 21.784C49.9609 21.2187 50.0462 20.6907 50.2169 20.2C50.3929 19.7093 50.6435 19.2853 50.9689 18.928C51.2942 18.5653 51.6915 18.2827 52.1609 18.08C52.6302 17.872 53.1582 17.768 53.7449 17.768C54.2302 17.768 54.6782 17.8507 55.0889 18.016C55.5049 18.176 55.8622 18.4107 56.1609 18.72C56.4649 19.024 56.7022 19.4027 56.8729 19.856C57.0435 20.304 57.1289 20.816 57.1289 21.392C57.1289 21.616 57.1049 21.7653 57.0569 21.84C57.0089 21.9147 56.9182 21.952 56.7849 21.952H51.3689C51.3849 22.464 51.4542 22.9093 51.5769 23.288C51.7049 23.6667 51.8809 23.984 52.1049 24.24C52.3289 24.4907 52.5955 24.68 52.9049 24.808C53.2142 24.9307 53.5609 24.992 53.9449 24.992C54.3022 24.992 54.6089 24.952 54.8649 24.872C55.1262 24.7867 55.3502 24.696 55.5369 24.6C55.7235 24.504 55.8782 24.416 56.0009 24.336C56.1289 24.2507 56.2382 24.208 56.3289 24.208C56.4462 24.208 56.5369 24.2533 56.6009 24.344L57.0009 24.864ZM60.35 14.216V26H58.926V14.216H60.35ZM64.1633 17.896V26H62.7393V17.896H64.1633ZM64.4673 15.352C64.4673 15.4907 64.4379 15.6213 64.3793 15.744C64.3259 15.8613 64.2513 15.968 64.1553 16.064C64.0646 16.1547 63.9553 16.2267 63.8273 16.28C63.7046 16.3333 63.5739 16.36 63.4353 16.36C63.2966 16.36 63.1659 16.3333 63.0433 16.28C62.9259 16.2267 62.8219 16.1547 62.7313 16.064C62.6406 15.968 62.5686 15.8613 62.5153 15.744C62.4619 15.6213 62.4353 15.4907 62.4353 15.352C62.4353 15.2133 62.4619 15.0827 62.5153 14.96C62.5686 14.832 62.6406 14.7227 62.7313 14.632C62.8219 14.536 62.9259 14.4613 63.0433 14.408C63.1659 14.3547 63.2966 14.328 63.4353 14.328C63.5739 14.328 63.7046 14.3547 63.8273 14.408C63.9553 14.4613 64.0646 14.536 64.1553 14.632C64.2513 14.7227 64.3259 14.832 64.3793 14.96C64.4379 15.0827 64.4673 15.2133 64.4673 15.352ZM73.447 17.896L70.143 26H68.863L65.559 17.896H66.719C66.8363 17.896 66.9323 17.9253 67.007 17.984C67.0817 18.0427 67.1323 18.112 67.159 18.192L69.215 23.408C69.279 23.6053 69.335 23.7973 69.383 23.984C69.431 24.1707 69.4763 24.3573 69.519 24.544C69.5617 24.3573 69.607 24.1707 69.655 23.984C69.703 23.7973 69.7617 23.6053 69.831 23.408L71.911 18.192C71.943 18.1067 71.9963 18.0373 72.071 17.984C72.1457 17.9253 72.2337 17.896 72.335 17.896H73.447ZM79.9583 21.064C79.9583 20.7333 79.9103 20.432 79.8143 20.16C79.7236 19.8827 79.5876 19.6453 79.4063 19.448C79.2303 19.2453 79.0143 19.0907 78.7583 18.984C78.5023 18.872 78.2116 18.816 77.8863 18.816C77.2036 18.816 76.6623 19.016 76.2623 19.416C75.8676 19.8107 75.6223 20.36 75.5263 21.064H79.9583ZM81.1103 24.864C80.9343 25.0773 80.7236 25.264 80.4783 25.424C80.2329 25.5787 79.9689 25.7067 79.6863 25.808C79.4089 25.9093 79.1209 25.984 78.8223 26.032C78.5236 26.0853 78.2276 26.112 77.9343 26.112C77.3743 26.112 76.8569 26.0187 76.3823 25.832C75.9129 25.64 75.5049 25.3627 75.1583 25C74.8169 24.632 74.5503 24.1787 74.3583 23.64C74.1663 23.1013 74.0703 22.4827 74.0703 21.784C74.0703 21.2187 74.1556 20.6907 74.3263 20.2C74.5023 19.7093 74.7529 19.2853 75.0783 18.928C75.4036 18.5653 75.8009 18.2827 76.2703 18.08C76.7396 17.872 77.2676 17.768 77.8543 17.768C78.3396 17.768 78.7876 17.8507 79.1983 18.016C79.6143 18.176 79.9716 18.4107 80.2703 18.72C80.5743 19.024 80.8116 19.4027 80.9823 19.856C81.1529 20.304 81.2383 20.816 81.2383 21.392C81.2383 21.616 81.2143 21.7653 81.1663 21.84C81.1183 21.9147 81.0276 21.952 80.8943 21.952H75.4783C75.4943 22.464 75.5636 22.9093 75.6863 23.288C75.8143 23.6667 75.9903 23.984 76.2143 24.24C76.4383 24.4907 76.7049 24.68 77.0143 24.808C77.3236 24.9307 77.6703 24.992 78.0543 24.992C78.4116 24.992 78.7183 24.952 78.9743 24.872C79.2356 24.7867 79.4596 24.696 79.6463 24.6C79.8329 24.504 79.9876 24.416 80.1103 24.336C80.2383 24.2507 80.3476 24.208 80.4383 24.208C80.5556 24.208 80.6463 24.2533 80.7103 24.344L81.1103 24.864ZM84.3394 19.52C84.5954 18.9653 84.91 18.5333 85.2834 18.224C85.6567 17.9093 86.1127 17.752 86.6514 17.752C86.822 17.752 86.9847 17.7707 87.1394 17.808C87.2994 17.8453 87.4407 17.904 87.5634 17.984L87.4594 19.048C87.4274 19.1813 87.3474 19.248 87.2194 19.248C87.1447 19.248 87.0354 19.232 86.8914 19.2C86.7474 19.168 86.5847 19.152 86.4034 19.152C86.1474 19.152 85.918 19.1893 85.7154 19.264C85.518 19.3387 85.3394 19.4507 85.1794 19.6C85.0247 19.744 84.8834 19.9253 84.7554 20.144C84.6327 20.3573 84.5207 20.6027 84.4194 20.88V26H82.9874V17.896H83.8034C83.958 17.896 84.0647 17.9253 84.1234 17.984C84.182 18.0427 84.222 18.144 84.2434 18.288L84.3394 19.52ZM93.9114 21.064C93.9114 20.7333 93.8634 20.432 93.7674 20.16C93.6767 19.8827 93.5407 19.6453 93.3594 19.448C93.1834 19.2453 92.9674 19.0907 92.7114 18.984C92.4554 18.872 92.1647 18.816 91.8394 18.816C91.1567 18.816 90.6154 19.016 90.2154 19.416C89.8207 19.8107 89.5754 20.36 89.4794 21.064H93.9114ZM95.0634 24.864C94.8874 25.0773 94.6767 25.264 94.4314 25.424C94.186 25.5787 93.922 25.7067 93.6394 25.808C93.362 25.9093 93.074 25.984 92.7754 26.032C92.4767 26.0853 92.1807 26.112 91.8874 26.112C91.3274 26.112 90.81 26.0187 90.3354 25.832C89.866 25.64 89.458 25.3627 89.1114 25C88.77 24.632 88.5034 24.1787 88.3114 23.64C88.1194 23.1013 88.0234 22.4827 88.0234 21.784C88.0234 21.2187 88.1087 20.6907 88.2794 20.2C88.4554 19.7093 88.706 19.2853 89.0314 18.928C89.3567 18.5653 89.754 18.2827 90.2234 18.08C90.6927 17.872 91.2207 17.768 91.8074 17.768C92.2927 17.768 92.7407 17.8507 93.1514 18.016C93.5674 18.176 93.9247 18.4107 94.2234 18.72C94.5274 19.024 94.7647 19.4027 94.9354 19.856C95.106 20.304 95.1914 20.816 95.1914 21.392C95.1914 21.616 95.1674 21.7653 95.1194 21.84C95.0714 21.9147 94.9807 21.952 94.8474 21.952H89.4314C89.4474 22.464 89.5167 22.9093 89.6394 23.288C89.7674 23.6667 89.9434 23.984 90.1674 24.24C90.3914 24.4907 90.658 24.68 90.9674 24.808C91.2767 24.9307 91.6234 24.992 92.0074 24.992C92.3647 24.992 92.6714 24.952 92.9274 24.872C93.1887 24.7867 93.4127 24.696 93.5994 24.6C93.786 24.504 93.9407 24.416 94.0634 24.336C94.1914 24.2507 94.3007 24.208 94.3914 24.208C94.5087 24.208 94.5994 24.2533 94.6634 24.344L95.0634 24.864ZM102.221 19.824C101.954 19.4667 101.666 19.2187 101.357 19.08C101.047 18.936 100.701 18.864 100.317 18.864C99.5645 18.864 98.9858 19.1333 98.5805 19.672C98.1752 20.2107 97.9725 20.9787 97.9725 21.976C97.9725 22.504 98.0178 22.9573 98.1085 23.336C98.1992 23.7093 98.3325 24.0187 98.5085 24.264C98.6845 24.504 98.9005 24.68 99.1565 24.792C99.4125 24.904 99.7032 24.96 100.029 24.96C100.498 24.96 100.906 24.8533 101.253 24.64C101.605 24.4267 101.927 24.1253 102.221 23.736V19.824ZM103.645 14.216V26H102.797C102.594 26 102.466 25.9013 102.413 25.704L102.285 24.72C101.938 25.136 101.543 25.472 101.101 25.728C100.658 25.984 100.146 26.112 99.5645 26.112C99.1005 26.112 98.6792 26.024 98.3005 25.848C97.9218 25.6667 97.5992 25.4027 97.3325 25.056C97.0658 24.7093 96.8605 24.2773 96.7165 23.76C96.5725 23.2427 96.5005 22.648 96.5005 21.976C96.5005 21.3787 96.5805 20.824 96.7405 20.312C96.9005 19.7947 97.1298 19.3467 97.4285 18.968C97.7272 18.5893 98.0925 18.2933 98.5245 18.08C98.9618 17.8613 99.4525 17.752 99.9965 17.752C100.493 17.752 100.917 17.8373 101.269 18.008C101.626 18.1733 101.943 18.4053 102.221 18.704V14.216H103.645Z" fill="#4C4C4C"/>
<defs>
<clipPath id="clip0_845_11375">
<rect width="16" height="16" fill="white" transform="translate(15 11.5)"/>
</clipPath>
</defs>
</svg>
