<svg width="17" height="18" viewBox="0 0 17 18" fill="none" xmlns="http://www.w3.org/2000/svg">
<g id="Group">
<path id="Vector" d="M1.16699 3.16667C1.16699 2.72464 1.34259 2.30072 1.65515 1.98816C1.96771 1.67559 2.39163 1.5 2.83366 1.5H11.167C11.609 1.5 12.0329 1.67559 12.3455 1.98816C12.6581 2.30072 12.8337 2.72464 12.8337 3.16667V4.83333C12.8337 5.27536 12.6581 5.69928 12.3455 6.01184C12.0329 6.3244 11.609 6.5 11.167 6.5H2.83366C2.39163 6.5 1.96771 6.3244 1.65515 6.01184C1.34259 5.69928 1.16699 5.27536 1.16699 4.83333V3.16667Z" stroke="white" stroke-width="2" stroke-linecap="round" stroke-linejoin="round"/>
<path id="Vector_2" d="M12.834 4H13.6673C14.1093 4 14.5333 4.17559 14.8458 4.48816C15.1584 4.80072 15.334 5.22464 15.334 5.66667C15.334 6.77174 14.895 7.83154 14.1136 8.61294C13.3322 9.39435 12.2724 9.83333 11.1673 9.83333H7.00065V11.5M5.33398 12.3333C5.33398 12.1123 5.42178 11.9004 5.57806 11.7441C5.73434 11.5878 5.9463 11.5 6.16732 11.5H7.83398C8.055 11.5 8.26696 11.5878 8.42324 11.7441C8.57952 11.9004 8.66732 12.1123 8.66732 12.3333V15.6667C8.66732 15.8877 8.57952 16.0996 8.42324 16.2559C8.26696 16.4122 8.055 16.5 7.83398 16.5H6.16732C5.9463 16.5 5.73434 16.4122 5.57806 16.2559C5.42178 16.0996 5.33398 15.8877 5.33398 15.6667V12.3333Z" stroke="white" stroke-width="2" stroke-linecap="round" stroke-linejoin="round"/>
</g>
</svg>
