<svg width="150" height="39" viewBox="0 0 150 39" fill="none" xmlns="http://www.w3.org/2000/svg">
<mask id="path-1-inside-1_324_37199" fill="white">
<path d="M0 0H150V39H0V0Z"/>
</mask>
<path d="M0 0H150V39H0V0Z" fill="white"/>
<path d="M150 38H0V40H150V38Z" fill="#F2F4F8" mask="url(#path-1-inside-1_324_37199)"/>
<circle cx="21" cy="19.5" r="6" fill="#D8D8D8"/>
<path d="M44.0723 14.536V26H43.2963C43.1736 26 43.0696 25.9787 42.9843 25.936C42.9043 25.8933 42.8243 25.8213 42.7443 25.72L36.1123 17.08C36.123 17.2133 36.131 17.344 36.1363 17.472C36.1416 17.6 36.1443 17.72 36.1443 17.832V26H34.7843V14.536H35.5843C35.6536 14.536 35.7123 14.5413 35.7603 14.552C35.8083 14.5573 35.851 14.5707 35.8883 14.592C35.9256 14.608 35.963 14.6347 36.0003 14.672C36.0376 14.704 36.0776 14.7467 36.1203 14.8L42.7523 23.432C42.7416 23.2933 42.731 23.16 42.7203 23.032C42.715 22.8987 42.7123 22.7733 42.7123 22.656V14.536H44.0723ZM49.8331 17.768C50.4251 17.768 50.9584 17.8667 51.4331 18.064C51.9077 18.2613 52.3131 18.5413 52.6491 18.904C52.9851 19.2667 53.2411 19.7067 53.4171 20.224C53.5984 20.736 53.6891 21.3093 53.6891 21.944C53.6891 22.584 53.5984 23.16 53.4171 23.672C53.2411 24.184 52.9851 24.6213 52.6491 24.984C52.3131 25.3467 51.9077 25.6267 51.4331 25.824C50.9584 26.016 50.4251 26.112 49.8331 26.112C49.2357 26.112 48.6971 26.016 48.2171 25.824C47.7424 25.6267 47.3371 25.3467 47.0011 24.984C46.6651 24.6213 46.4064 24.184 46.2251 23.672C46.0491 23.16 45.9611 22.584 45.9611 21.944C45.9611 21.3093 46.0491 20.736 46.2251 20.224C46.4064 19.7067 46.6651 19.2667 47.0011 18.904C47.3371 18.5413 47.7424 18.2613 48.2171 18.064C48.6971 17.8667 49.2357 17.768 49.8331 17.768ZM49.8331 25C50.6331 25 51.2304 24.7333 51.6251 24.2C52.0197 23.6613 52.2171 22.912 52.2171 21.952C52.2171 20.9867 52.0197 20.2347 51.6251 19.696C51.2304 19.1573 50.6331 18.888 49.8331 18.888C49.4277 18.888 49.0731 18.9573 48.7691 19.096C48.4704 19.2347 48.2197 19.4347 48.0171 19.696C47.8197 19.9573 47.6704 20.28 47.5691 20.664C47.4731 21.0427 47.4251 21.472 47.4251 21.952C47.4251 22.912 47.6224 23.6613 48.0171 24.2C48.4171 24.7333 49.0224 25 49.8331 25ZM57.8426 26.128C57.2026 26.128 56.7092 25.9493 56.3626 25.592C56.0212 25.2347 55.8506 24.72 55.8506 24.048V19.088H54.8746C54.7892 19.088 54.7172 19.064 54.6586 19.016C54.5999 18.9627 54.5706 18.8827 54.5706 18.776V18.208L55.8986 18.04L56.2266 15.536C56.2426 15.456 56.2772 15.392 56.3306 15.344C56.3892 15.2907 56.4639 15.264 56.5546 15.264H57.2746V18.056H59.6186V19.088H57.2746V23.952C57.2746 24.2933 57.3572 24.5467 57.5226 24.712C57.6879 24.8773 57.9012 24.96 58.1626 24.96C58.3119 24.96 58.4399 24.9413 58.5466 24.904C58.6586 24.8613 58.7546 24.816 58.8346 24.768C58.9146 24.72 58.9812 24.6773 59.0346 24.64C59.0932 24.5973 59.1439 24.576 59.1866 24.576C59.2612 24.576 59.3279 24.6213 59.3866 24.712L59.8026 25.392C59.5572 25.6213 59.2612 25.8027 58.9146 25.936C58.5679 26.064 58.2106 26.128 57.8426 26.128ZM71.0754 21.744L69.2754 17.08C69.2221 16.9413 69.1661 16.7813 69.1074 16.6C69.0488 16.4133 68.9928 16.216 68.9394 16.008C68.8274 16.44 68.7128 16.8 68.5954 17.088L66.7954 21.744H71.0754ZM74.3074 26H73.1074C72.9688 26 72.8568 25.9653 72.7714 25.896C72.6861 25.8267 72.6221 25.7387 72.5794 25.632L71.5074 22.864H66.3634L65.2914 25.632C65.2594 25.728 65.1981 25.8133 65.1074 25.888C65.0168 25.9627 64.9048 26 64.7714 26H63.5714L68.1554 14.536H69.7234L74.3074 26ZM80.1996 19.232C80.1356 19.3493 80.0369 19.408 79.9036 19.408C79.8236 19.408 79.7329 19.3787 79.6316 19.32C79.5302 19.2613 79.4049 19.1973 79.2556 19.128C79.1116 19.0533 78.9382 18.9867 78.7356 18.928C78.5329 18.864 78.2929 18.832 78.0156 18.832C77.7756 18.832 77.5596 18.864 77.3676 18.928C77.1756 18.9867 77.0102 19.0693 76.8716 19.176C76.7382 19.2827 76.6342 19.408 76.5596 19.552C76.4902 19.6907 76.4556 19.8427 76.4556 20.008C76.4556 20.216 76.5142 20.3893 76.6316 20.528C76.7542 20.6667 76.9142 20.7867 77.1116 20.888C77.3089 20.9893 77.5329 21.08 77.7836 21.16C78.0342 21.2347 78.2902 21.3173 78.5516 21.408C78.8182 21.4933 79.0769 21.5893 79.3276 21.696C79.5782 21.8027 79.8022 21.936 79.9996 22.096C80.1969 22.256 80.3542 22.4533 80.4716 22.688C80.5942 22.9173 80.6556 23.1947 80.6556 23.52C80.6556 23.8933 80.5889 24.24 80.4556 24.56C80.3222 24.8747 80.1249 25.1493 79.8636 25.384C79.6022 25.6133 79.2822 25.7947 78.9036 25.928C78.5249 26.0613 78.0876 26.128 77.5916 26.128C77.0262 26.128 76.5142 26.0373 76.0556 25.856C75.5969 25.6693 75.2076 25.432 74.8876 25.144L75.2236 24.6C75.2662 24.5307 75.3169 24.4773 75.3756 24.44C75.4342 24.4027 75.5089 24.384 75.5996 24.384C75.6956 24.384 75.7969 24.4213 75.9036 24.496C76.0102 24.5707 76.1382 24.6533 76.2876 24.744C76.4422 24.8347 76.6289 24.9173 76.8476 24.992C77.0662 25.0667 77.3382 25.104 77.6636 25.104C77.9409 25.104 78.1836 25.0693 78.3916 25C78.5996 24.9253 78.7729 24.8267 78.9116 24.704C79.0502 24.5813 79.1516 24.44 79.2156 24.28C79.2849 24.12 79.3196 23.9493 79.3196 23.768C79.3196 23.544 79.2582 23.36 79.1356 23.216C79.0182 23.0667 78.8609 22.9413 78.6636 22.84C78.4662 22.7333 78.2396 22.6427 77.9836 22.568C77.7329 22.488 77.4742 22.4053 77.2076 22.32C76.9462 22.2347 76.6876 22.1387 76.4316 22.032C76.1809 21.92 75.9569 21.7813 75.7596 21.616C75.5622 21.4507 75.4022 21.248 75.2796 21.008C75.1622 20.7627 75.1036 20.4667 75.1036 20.12C75.1036 19.8107 75.1676 19.5147 75.2956 19.232C75.4236 18.944 75.6102 18.6933 75.8556 18.48C76.1009 18.2613 76.4022 18.088 76.7596 17.96C77.1169 17.832 77.5249 17.768 77.9836 17.768C78.5169 17.768 78.9942 17.8533 79.4156 18.024C79.8422 18.1893 80.2102 18.4187 80.5196 18.712L80.1996 19.232ZM87.1214 19.232C87.0574 19.3493 86.9588 19.408 86.8254 19.408C86.7454 19.408 86.6548 19.3787 86.5534 19.32C86.4521 19.2613 86.3268 19.1973 86.1774 19.128C86.0334 19.0533 85.8601 18.9867 85.6574 18.928C85.4548 18.864 85.2148 18.832 84.9374 18.832C84.6974 18.832 84.4814 18.864 84.2894 18.928C84.0974 18.9867 83.9321 19.0693 83.7934 19.176C83.6601 19.2827 83.5561 19.408 83.4814 19.552C83.4121 19.6907 83.3774 19.8427 83.3774 20.008C83.3774 20.216 83.4361 20.3893 83.5534 20.528C83.6761 20.6667 83.8361 20.7867 84.0334 20.888C84.2308 20.9893 84.4548 21.08 84.7054 21.16C84.9561 21.2347 85.2121 21.3173 85.4734 21.408C85.7401 21.4933 85.9988 21.5893 86.2494 21.696C86.5001 21.8027 86.7241 21.936 86.9214 22.096C87.1188 22.256 87.2761 22.4533 87.3934 22.688C87.5161 22.9173 87.5774 23.1947 87.5774 23.52C87.5774 23.8933 87.5108 24.24 87.3774 24.56C87.2441 24.8747 87.0468 25.1493 86.7854 25.384C86.5241 25.6133 86.2041 25.7947 85.8254 25.928C85.4468 26.0613 85.0094 26.128 84.5134 26.128C83.9481 26.128 83.4361 26.0373 82.9774 25.856C82.5188 25.6693 82.1294 25.432 81.8094 25.144L82.1454 24.6C82.1881 24.5307 82.2388 24.4773 82.2974 24.44C82.3561 24.4027 82.4308 24.384 82.5214 24.384C82.6174 24.384 82.7188 24.4213 82.8254 24.496C82.9321 24.5707 83.0601 24.6533 83.2094 24.744C83.3641 24.8347 83.5508 24.9173 83.7694 24.992C83.9881 25.0667 84.2601 25.104 84.5854 25.104C84.8628 25.104 85.1054 25.0693 85.3134 25C85.5214 24.9253 85.6948 24.8267 85.8334 24.704C85.9721 24.5813 86.0734 24.44 86.1374 24.28C86.2068 24.12 86.2414 23.9493 86.2414 23.768C86.2414 23.544 86.1801 23.36 86.0574 23.216C85.9401 23.0667 85.7828 22.9413 85.5854 22.84C85.3881 22.7333 85.1614 22.6427 84.9054 22.568C84.6548 22.488 84.3961 22.4053 84.1294 22.32C83.8681 22.2347 83.6094 22.1387 83.3534 22.032C83.1028 21.92 82.8788 21.7813 82.6814 21.616C82.4841 21.4507 82.3241 21.248 82.2014 21.008C82.0841 20.7627 82.0254 20.4667 82.0254 20.12C82.0254 19.8107 82.0894 19.5147 82.2174 19.232C82.3454 18.944 82.5321 18.6933 82.7774 18.48C83.0228 18.2613 83.3241 18.088 83.6814 17.96C84.0388 17.832 84.4468 17.768 84.9054 17.768C85.4388 17.768 85.9161 17.8533 86.3374 18.024C86.7641 18.1893 87.1321 18.4187 87.4414 18.712L87.1214 19.232ZM90.8273 17.896V26H89.4033V17.896H90.8273ZM91.1313 15.352C91.1313 15.4907 91.102 15.6213 91.0433 15.744C90.99 15.8613 90.9153 15.968 90.8193 16.064C90.7286 16.1547 90.6193 16.2267 90.4913 16.28C90.3686 16.3333 90.238 16.36 90.0993 16.36C89.9606 16.36 89.83 16.3333 89.7073 16.28C89.59 16.2267 89.486 16.1547 89.3953 16.064C89.3046 15.968 89.2326 15.8613 89.1793 15.744C89.126 15.6213 89.0993 15.4907 89.0993 15.352C89.0993 15.2133 89.126 15.0827 89.1793 14.96C89.2326 14.832 89.3046 14.7227 89.3953 14.632C89.486 14.536 89.59 14.4613 89.7073 14.408C89.83 14.3547 89.9606 14.328 90.0993 14.328C90.238 14.328 90.3686 14.3547 90.4913 14.408C90.6193 14.4613 90.7286 14.536 90.8193 14.632C90.9153 14.7227 90.99 14.832 91.0433 14.96C91.102 15.0827 91.1313 15.2133 91.1313 15.352ZM95.9911 22.04C96.2791 22.04 96.5324 22 96.7511 21.92C96.9697 21.84 97.1537 21.728 97.3031 21.584C97.4524 21.44 97.5644 21.2693 97.6391 21.072C97.7137 20.8693 97.7511 20.648 97.7511 20.408C97.7511 19.912 97.5991 19.5173 97.2951 19.224C96.9964 18.9307 96.5617 18.784 95.9911 18.784C95.4151 18.784 94.9751 18.9307 94.6711 19.224C94.3724 19.5173 94.2231 19.912 94.2231 20.408C94.2231 20.648 94.2604 20.8693 94.3351 21.072C94.4151 21.2693 94.5297 21.44 94.6791 21.584C94.8284 21.728 95.0124 21.84 95.2311 21.92C95.4497 22 95.7031 22.04 95.9911 22.04ZM98.5591 26.44C98.5591 26.2427 98.5031 26.0827 98.3911 25.96C98.2791 25.8373 98.1271 25.7413 97.9351 25.672C97.7484 25.6027 97.5297 25.5547 97.2791 25.528C97.0284 25.496 96.7617 25.472 96.4791 25.456C96.2017 25.44 95.9191 25.424 95.6311 25.408C95.3431 25.392 95.0657 25.3653 94.7991 25.328C94.5004 25.4667 94.2551 25.6427 94.0631 25.856C93.8764 26.064 93.7831 26.3093 93.7831 26.592C93.7831 26.7733 93.8284 26.9413 93.9191 27.096C94.0151 27.256 94.1591 27.392 94.3511 27.504C94.5431 27.6213 94.7831 27.712 95.0711 27.776C95.3644 27.8453 95.7084 27.88 96.1031 27.88C96.4871 27.88 96.8311 27.8453 97.1351 27.776C97.4391 27.7067 97.6951 27.608 97.9031 27.48C98.1164 27.352 98.2791 27.2 98.3911 27.024C98.5031 26.848 98.5591 26.6533 98.5591 26.44ZM100.007 18.216V18.744C100.007 18.92 99.8951 19.032 99.6711 19.08L98.7511 19.2C98.9324 19.552 99.0231 19.9413 99.0231 20.368C99.0231 20.7627 98.9457 21.1227 98.7911 21.448C98.6417 21.768 98.4337 22.0427 98.1671 22.272C97.9004 22.5013 97.5804 22.6773 97.2071 22.8C96.8337 22.9227 96.4284 22.984 95.9911 22.984C95.6124 22.984 95.2551 22.9387 94.9191 22.848C94.7484 22.9547 94.6177 23.0693 94.5271 23.192C94.4364 23.3093 94.3911 23.4293 94.3911 23.552C94.3911 23.744 94.4684 23.8907 94.6231 23.992C94.7831 24.088 94.9911 24.1573 95.2471 24.2C95.5031 24.2427 95.7937 24.2693 96.1191 24.28C96.4497 24.2907 96.7857 24.3093 97.1271 24.336C97.4737 24.3573 97.8097 24.3973 98.1351 24.456C98.4657 24.5147 98.7591 24.6107 99.0151 24.744C99.2711 24.8773 99.4764 25.0613 99.6311 25.296C99.7911 25.5307 99.8711 25.8347 99.8711 26.208C99.8711 26.5547 99.7831 26.8907 99.6071 27.216C99.4364 27.5413 99.1884 27.8293 98.8631 28.08C98.5377 28.336 98.1377 28.5387 97.6631 28.688C97.1937 28.8427 96.6631 28.92 96.0711 28.92C95.4791 28.92 94.9617 28.8613 94.5191 28.744C94.0764 28.6267 93.7084 28.4693 93.4151 28.272C93.1217 28.0747 92.9004 27.8453 92.7511 27.584C92.6071 27.328 92.5351 27.0587 92.5351 26.776C92.5351 26.376 92.6604 26.0373 92.9111 25.76C93.1617 25.4827 93.5057 25.2613 93.9431 25.096C93.7031 24.9893 93.5111 24.848 93.3671 24.672C93.2284 24.4907 93.1591 24.248 93.1591 23.944C93.1591 23.8267 93.1804 23.7067 93.2231 23.584C93.2657 23.456 93.3297 23.3307 93.4151 23.208C93.5057 23.08 93.6151 22.96 93.7431 22.848C93.8711 22.736 94.0204 22.6373 94.1911 22.552C93.7911 22.328 93.4791 22.032 93.2551 21.664C93.0311 21.2907 92.9191 20.8587 92.9191 20.368C92.9191 19.9733 92.9937 19.616 93.1431 19.296C93.2977 18.9707 93.5111 18.696 93.7831 18.472C94.0551 18.2427 94.3777 18.0667 94.7511 17.944C95.1297 17.8213 95.5431 17.76 95.9911 17.76C96.3431 17.76 96.6711 17.8 96.9751 17.88C97.2791 17.9547 97.5564 18.0667 97.8071 18.216H100.007ZM102.824 19.072C103 18.8747 103.186 18.696 103.384 18.536C103.581 18.376 103.789 18.24 104.008 18.128C104.232 18.0107 104.466 17.9227 104.712 17.864C104.962 17.8 105.232 17.768 105.52 17.768C105.962 17.768 106.352 17.8427 106.688 17.992C107.029 18.136 107.312 18.344 107.536 18.616C107.765 18.8827 107.938 19.2053 108.056 19.584C108.173 19.9627 108.232 20.3813 108.232 20.84V26H106.8V20.84C106.8 20.2267 106.658 19.752 106.376 19.416C106.098 19.0747 105.674 18.904 105.104 18.904C104.682 18.904 104.288 19.0053 103.92 19.208C103.557 19.4107 103.221 19.6853 102.912 20.032V26H101.48V17.896H102.336C102.538 17.896 102.664 17.9947 102.712 18.192L102.824 19.072ZM115.825 21.064C115.825 20.7333 115.777 20.432 115.681 20.16C115.591 19.8827 115.455 19.6453 115.273 19.448C115.097 19.2453 114.881 19.0907 114.625 18.984C114.369 18.872 114.079 18.816 113.753 18.816C113.071 18.816 112.529 19.016 112.129 19.416C111.735 19.8107 111.489 20.36 111.393 21.064H115.825ZM116.977 24.864C116.801 25.0773 116.591 25.264 116.345 25.424C116.1 25.5787 115.836 25.7067 115.553 25.808C115.276 25.9093 114.988 25.984 114.689 26.032C114.391 26.0853 114.095 26.112 113.801 26.112C113.241 26.112 112.724 26.0187 112.249 25.832C111.78 25.64 111.372 25.3627 111.025 25C110.684 24.632 110.417 24.1787 110.225 23.64C110.033 23.1013 109.937 22.4827 109.937 21.784C109.937 21.2187 110.023 20.6907 110.193 20.2C110.369 19.7093 110.62 19.2853 110.945 18.928C111.271 18.5653 111.668 18.2827 112.137 18.08C112.607 17.872 113.135 17.768 113.721 17.768C114.207 17.768 114.655 17.8507 115.065 18.016C115.481 18.176 115.839 18.4107 116.137 18.72C116.441 19.024 116.679 19.4027 116.849 19.856C117.02 20.304 117.105 20.816 117.105 21.392C117.105 21.616 117.081 21.7653 117.033 21.84C116.985 21.9147 116.895 21.952 116.761 21.952H111.345C111.361 22.464 111.431 22.9093 111.553 23.288C111.681 23.6667 111.857 23.984 112.081 24.24C112.305 24.4907 112.572 24.68 112.881 24.808C113.191 24.9307 113.537 24.992 113.921 24.992C114.279 24.992 114.585 24.952 114.841 24.872C115.103 24.7867 115.327 24.696 115.513 24.6C115.7 24.504 115.855 24.416 115.977 24.336C116.105 24.2507 116.215 24.208 116.305 24.208C116.423 24.208 116.513 24.2533 116.577 24.344L116.977 24.864ZM124.135 19.824C123.868 19.4667 123.58 19.2187 123.271 19.08C122.961 18.936 122.615 18.864 122.231 18.864C121.479 18.864 120.9 19.1333 120.495 19.672C120.089 20.2107 119.887 20.9787 119.887 21.976C119.887 22.504 119.932 22.9573 120.023 23.336C120.113 23.7093 120.247 24.0187 120.423 24.264C120.599 24.504 120.815 24.68 121.071 24.792C121.327 24.904 121.617 24.96 121.943 24.96C122.412 24.96 122.82 24.8533 123.167 24.64C123.519 24.4267 123.841 24.1253 124.135 23.736V19.824ZM125.559 14.216V26H124.711C124.508 26 124.38 25.9013 124.327 25.704L124.199 24.72C123.852 25.136 123.457 25.472 123.015 25.728C122.572 25.984 122.06 26.112 121.479 26.112C121.015 26.112 120.593 26.024 120.215 25.848C119.836 25.6667 119.513 25.4027 119.247 25.056C118.98 24.7093 118.775 24.2773 118.631 23.76C118.487 23.2427 118.415 22.648 118.415 21.976C118.415 21.3787 118.495 20.824 118.655 20.312C118.815 19.7947 119.044 19.3467 119.343 18.968C119.641 18.5893 120.007 18.2933 120.439 18.08C120.876 17.8613 121.367 17.752 121.911 17.752C122.407 17.752 122.831 17.8373 123.183 18.008C123.54 18.1733 123.857 18.4053 124.135 18.704V14.216H125.559Z" fill="#4C4C4C"/>
</svg>
