<svg width="79" height="27" viewBox="0 0 79 27" fill="none" xmlns="http://www.w3.org/2000/svg">
<rect width="79" height="27" rx="13.5" fill="#D3F0FA"/>
<path d="M16.0827 13.8751C16.3257 13.8751 16.5324 13.7901 16.7028 13.6202C16.8731 13.4502 16.9581 13.2435 16.9577 13.0001C16.9577 12.757 16.8727 12.5505 16.7028 12.3806C16.5328 12.2106 16.3261 12.1255 16.0827 12.1251C15.8396 12.1251 15.6331 12.2102 15.4632 12.3806C15.2932 12.5509 15.2081 12.7574 15.2077 13.0001C15.2077 13.2431 15.2928 13.4498 15.4632 13.6202C15.6335 13.7905 15.84 13.8755 16.0827 13.8751ZM18.9993 13.8751C19.2424 13.8751 19.4491 13.7901 19.6194 13.6202C19.7898 13.4502 19.8747 13.2435 19.8743 13.0001C19.8743 12.757 19.7894 12.5505 19.6194 12.3806C19.4495 12.2106 19.2428 12.1255 18.9993 12.1251C18.7563 12.1251 18.5498 12.2102 18.3798 12.3806C18.2099 12.5509 18.1247 12.7574 18.1243 13.0001C18.1243 13.2431 18.2095 13.4498 18.3798 13.6202C18.5502 13.7905 18.7567 13.8755 18.9993 13.8751ZM21.916 13.8751C22.1591 13.8751 22.3658 13.7901 22.5361 13.6202C22.7064 13.4502 22.7914 13.2435 22.791 13.0001C22.791 12.757 22.706 12.5505 22.5361 12.3806C22.3662 12.2106 22.1595 12.1255 21.916 12.1251C21.673 12.1251 21.4665 12.2102 21.2965 12.3806C21.1266 12.5509 21.0414 12.7574 21.041 13.0001C21.041 13.2431 21.1262 13.4498 21.2965 13.6202C21.4668 13.7905 21.6733 13.8755 21.916 13.8751ZM18.9993 18.8334C18.1924 18.8334 17.4341 18.6802 16.7243 18.3737C16.0146 18.0673 15.3973 17.6518 14.8723 17.1272C14.3473 16.6022 13.9317 15.9848 13.6257 15.2751C13.3196 14.5654 13.1664 13.807 13.166 13.0001C13.166 12.1931 13.3192 11.4348 13.6257 10.7251C13.9321 10.0154 14.3477 9.398 14.8723 8.873C15.3973 8.348 16.0146 7.93247 16.7243 7.62641C17.4341 7.32036 18.1924 7.16714 18.9993 7.16675C19.8063 7.16675 20.5646 7.31997 21.2743 7.62641C21.9841 7.93286 22.6014 8.34839 23.1264 8.873C23.6514 9.398 24.0672 10.0154 24.3736 10.7251C24.68 11.4348 24.8331 12.1931 24.8327 13.0001C24.8327 13.807 24.6795 14.5654 24.373 15.2751C24.0666 15.9848 23.651 16.6022 23.1264 17.1272C22.6014 17.6522 21.9841 18.0679 21.2743 18.3743C20.5646 18.6808 19.8063 18.8338 18.9993 18.8334ZM18.9993 17.6667C20.3021 17.6667 21.4056 17.2147 22.3098 16.3105C23.2139 15.4063 23.666 14.3029 23.666 13.0001C23.666 11.6973 23.2139 10.5938 22.3098 9.68966C21.4056 8.7855 20.3021 8.33341 18.9993 8.33341C17.6966 8.33341 16.5931 8.7855 15.6889 9.68966C14.7848 10.5938 14.3327 11.6973 14.3327 13.0001C14.3327 14.3029 14.7848 15.4063 15.6889 16.3105C16.5931 17.2147 17.6966 17.6667 18.9993 17.6667Z" fill="#00485F"/>
<path d="M41.5389 13.6C41.5389 14.4 41.4089 15.1375 41.1489 15.8125C40.8889 16.4875 40.5214 17.07 40.0464 17.56C39.5764 18.045 39.0089 18.425 38.3439 18.7C37.6839 18.975 36.9489 19.1125 36.1389 19.1125C35.3339 19.1125 34.5989 18.975 33.9339 18.7C33.2739 18.425 32.7064 18.045 32.2314 17.56C31.7564 17.07 31.3889 16.4875 31.1289 15.8125C30.8689 15.1375 30.7389 14.4 30.7389 13.6C30.7389 12.8 30.8689 12.0625 31.1289 11.3875C31.3889 10.7125 31.7564 10.13 32.2314 9.64C32.7064 9.15 33.2739 8.7675 33.9339 8.4925C34.5989 8.2175 35.3339 8.08 36.1389 8.08C36.9489 8.08 37.6839 8.2175 38.3439 8.4925C39.0089 8.7675 39.5764 9.15 40.0464 9.64C40.5214 10.13 40.8889 10.7125 41.1489 11.3875C41.4089 12.0625 41.5389 12.8 41.5389 13.6ZM39.7464 13.6C39.7464 12.98 39.6614 12.4225 39.4914 11.9275C39.3264 11.4325 39.0864 11.0125 38.7714 10.6675C38.4614 10.3225 38.0839 10.0575 37.6389 9.8725C37.1939 9.6875 36.6939 9.595 36.1389 9.595C35.5889 9.595 35.0914 9.6875 34.6464 9.8725C34.2014 10.0575 33.8214 10.3225 33.5064 10.6675C33.1914 11.0125 32.9489 11.4325 32.7789 11.9275C32.6089 12.4225 32.5239 12.98 32.5239 13.6C32.5239 14.225 32.6089 14.785 32.7789 15.28C32.9489 15.775 33.1914 16.195 33.5064 16.54C33.8214 16.88 34.2014 17.1425 34.6464 17.3275C35.0914 17.5075 35.5889 17.5975 36.1389 17.5975C36.6939 17.5975 37.1939 17.5075 37.6389 17.3275C38.0839 17.1425 38.4614 16.88 38.7714 16.54C39.0864 16.195 39.3264 15.775 39.4914 15.28C39.6614 14.785 39.7464 14.225 39.7464 13.6ZM44.6424 17.08C44.8674 17.37 45.1124 17.575 45.3774 17.695C45.6474 17.81 45.9449 17.8675 46.2699 17.8675C46.8999 17.8675 47.3899 17.6375 47.7399 17.1775C48.0949 16.7175 48.2724 16.0325 48.2724 15.1225C48.2724 14.6525 48.2324 14.2525 48.1524 13.9225C48.0724 13.5875 47.9574 13.315 47.8074 13.105C47.6574 12.895 47.4749 12.7425 47.2599 12.6475C47.0449 12.5525 46.8024 12.505 46.5324 12.505C46.1224 12.505 45.7674 12.595 45.4674 12.775C45.1724 12.95 44.8974 13.2025 44.6424 13.5325V17.08ZM44.5599 12.46C44.8799 12.085 45.2424 11.7825 45.6474 11.5525C46.0574 11.3225 46.5324 11.2075 47.0724 11.2075C47.5024 11.2075 47.8924 11.295 48.2424 11.47C48.5924 11.64 48.8924 11.89 49.1424 12.22C49.3924 12.55 49.5849 12.96 49.7199 13.45C49.8599 13.935 49.9299 14.4925 49.9299 15.1225C49.9299 15.6875 49.8524 16.215 49.6974 16.705C49.5474 17.19 49.3299 17.6125 49.0449 17.9725C48.7599 18.3275 48.4149 18.6075 48.0099 18.8125C47.6049 19.0125 47.1474 19.1125 46.6374 19.1125C46.1874 19.1125 45.8049 19.04 45.4899 18.895C45.1799 18.75 44.8974 18.55 44.6424 18.295V21.5425H43.0299V11.35H44.0049C44.2249 11.35 44.3649 11.4525 44.4249 11.6575L44.5599 12.46ZM56.5142 14.3125C56.5142 14.0425 56.4742 13.7925 56.3942 13.5625C56.3192 13.3275 56.2067 13.125 56.0567 12.955C55.9067 12.78 55.7192 12.645 55.4942 12.55C55.2742 12.45 55.0192 12.4 54.7292 12.4C54.1442 12.4 53.6842 12.5675 53.3492 12.9025C53.0142 13.2375 52.8017 13.7075 52.7117 14.3125H56.5142ZM52.6667 15.3025C52.6867 15.7375 52.7542 16.115 52.8692 16.435C52.9842 16.75 53.1367 17.0125 53.3267 17.2225C53.5217 17.4325 53.7517 17.59 54.0167 17.695C54.2867 17.795 54.5867 17.845 54.9167 17.845C55.2317 17.845 55.5042 17.81 55.7342 17.74C55.9642 17.665 56.1642 17.585 56.3342 17.5C56.5042 17.41 56.6492 17.33 56.7692 17.26C56.8892 17.185 56.9992 17.1475 57.0992 17.1475C57.2292 17.1475 57.3292 17.1975 57.3992 17.2975L57.8567 17.89C57.6667 18.115 57.4517 18.305 57.2117 18.46C56.9717 18.615 56.7167 18.7425 56.4467 18.8425C56.1767 18.9375 55.8992 19.005 55.6142 19.045C55.3292 19.09 55.0517 19.1125 54.7817 19.1125C54.2517 19.1125 53.7592 19.025 53.3042 18.85C52.8542 18.67 52.4617 18.4075 52.1267 18.0625C51.7967 17.7175 51.5367 17.29 51.3467 16.78C51.1617 16.27 51.0692 15.6825 51.0692 15.0175C51.0692 14.4875 51.1517 13.9925 51.3167 13.5325C51.4867 13.0725 51.7267 12.6725 52.0367 12.3325C52.3517 11.9925 52.7317 11.725 53.1767 11.53C53.6267 11.33 54.1342 11.23 54.6992 11.23C55.1692 11.23 55.6042 11.3075 56.0042 11.4625C56.4042 11.6125 56.7492 11.835 57.0392 12.13C57.3292 12.425 57.5542 12.7875 57.7142 13.2175C57.8792 13.6425 57.9617 14.1275 57.9617 14.6725C57.9617 14.9225 57.9342 15.09 57.8792 15.175C57.8242 15.26 57.7242 15.3025 57.5792 15.3025H52.6667ZM60.9729 12.3625C61.1379 12.1925 61.3079 12.04 61.4829 11.905C61.6629 11.765 61.8529 11.645 62.0529 11.545C62.2529 11.445 62.4654 11.3675 62.6904 11.3125C62.9154 11.2575 63.1604 11.23 63.4254 11.23C63.8454 11.23 64.2129 11.3 64.5279 11.44C64.8479 11.58 65.1154 11.7775 65.3304 12.0325C65.5504 12.2875 65.7154 12.595 65.8254 12.955C65.9354 13.31 65.9904 13.7025 65.9904 14.1325V19H64.3854V14.1325C64.3854 13.6175 64.2654 13.2175 64.0254 12.9325C63.7904 12.6475 63.4304 12.505 62.9454 12.505C62.5854 12.505 62.2504 12.5875 61.9404 12.7525C61.6354 12.9175 61.3479 13.1425 61.0779 13.4275V19H59.4654V11.35H60.4404C60.6604 11.35 60.8004 11.4525 60.8604 11.6575L60.9729 12.3625Z" fill="#00485F"/>
</svg>
