<svg width="150" height="39" viewBox="0 0 150 39" fill="none" xmlns="http://www.w3.org/2000/svg">
<mask id="path-1-inside-1_845_11379" fill="white">
<path d="M0 0H150V39H0V0Z"/>
</mask>
<path d="M0 0H150V39H0V0Z" fill="white"/>
<path d="M150 38H0V40H150V38Z" fill="#F2F4F8" mask="url(#path-1-inside-1_845_11379)"/>
<g clip-path="url(#clip0_845_11379)">
<path fill-rule="evenodd" clip-rule="evenodd" d="M22.6562 13.1562C22.6562 12.9822 22.5871 12.8153 22.464 12.6922C22.341 12.5691 22.174 12.5 22 12.5C21.826 12.5 21.659 12.5691 21.536 12.6922C21.4129 12.8153 21.3438 12.9822 21.3438 13.1562V15.3683C20.5844 15.4245 19.835 15.5743 19.1125 15.8145C18.8289 15.9082 18.5508 16.0177 18.2795 16.1426C18.1798 16.1884 18.0815 16.2372 17.9846 16.2887L17.9654 16.2993L17.9592 16.3028L17.9575 16.3045H17.9566L18.2812 16.875L17.9558 16.3054C17.8553 16.3627 17.7718 16.4457 17.7137 16.5457C17.6556 16.6457 17.625 16.7593 17.625 16.875V18.8438C17.625 19.0178 17.6941 19.1847 17.8172 19.3078C17.9403 19.4309 18.1072 19.5 18.2812 19.5C18.4553 19.5 18.6222 19.4309 18.7453 19.3078C18.8684 19.1847 18.9375 19.0178 18.9375 18.8438V17.2862C19.906 16.8737 20.9473 16.6595 22 16.6562C23.0527 16.6595 24.094 16.8737 25.0625 17.2862V18.8438C25.0625 19.0178 25.1316 19.1847 25.2547 19.3078C25.3778 19.4309 25.5447 19.5 25.7188 19.5C25.8928 19.5 26.0597 19.4309 26.1828 19.3078C26.3059 19.1847 26.375 19.0178 26.375 18.8438V16.875C26.375 16.7593 26.3444 16.6457 26.2863 16.5457C26.2282 16.4457 26.1447 16.3627 26.0442 16.3054L26.0425 16.3045L26.0408 16.3028L26.0346 16.2993L26.0154 16.2887C25.9185 16.2369 25.8202 16.1879 25.7205 16.1418C25.449 16.0175 25.171 15.9082 24.8875 15.8145C24.165 15.5743 23.4156 15.4245 22.6562 15.3683V13.1562ZM24.1875 23C24.1875 23.5802 23.957 24.1366 23.5468 24.5468C23.1366 24.957 22.5802 25.1875 22 25.1875C21.4198 25.1875 20.8634 24.957 20.4532 24.5468C20.043 24.1366 19.8125 23.5802 19.8125 23C19.8125 22.4198 20.043 21.8634 20.4532 21.4532C20.8634 21.043 21.4198 20.8125 22 20.8125C22.5802 20.8125 23.1366 21.043 23.5468 21.4532C23.957 21.8634 24.1875 22.4198 24.1875 23ZM25.4388 23.6562C25.286 24.4564 24.859 25.1781 24.2313 25.6973C23.6036 26.2165 22.8146 26.5005 22 26.5005C21.1854 26.5005 20.3964 26.2165 19.7687 25.6973C19.141 25.1781 18.714 24.4564 18.5613 23.6562H15.6562C15.4822 23.6562 15.3153 23.5871 15.1922 23.464C15.0691 23.341 15 23.174 15 23C15 22.826 15.0691 22.659 15.1922 22.536C15.3153 22.4129 15.4822 22.3438 15.6562 22.3438H18.5613C18.714 21.5436 19.141 20.8219 19.7687 20.3027C20.3964 19.7835 21.1854 19.4995 22 19.4995C22.8146 19.4995 23.6036 19.7835 24.2313 20.3027C24.859 20.8219 25.286 21.5436 25.4388 22.3438H28.3438C28.5178 22.3438 28.6847 22.4129 28.8078 22.536C28.9309 22.659 29 22.826 29 23C29 23.174 28.9309 23.341 28.8078 23.464C28.6847 23.5871 28.5178 23.6562 28.3438 23.6562H25.4388Z" fill="#7F5400"/>
</g>
<path d="M39.9886 20.48C40.4313 20.48 40.8206 20.4213 41.1566 20.304C41.498 20.1867 41.7833 20.024 42.0126 19.816C42.2473 19.6027 42.4233 19.3493 42.5406 19.056C42.658 18.7627 42.7166 18.44 42.7166 18.088C42.7166 17.3573 42.49 16.7867 42.0366 16.376C41.5886 15.9653 40.906 15.76 39.9886 15.76H38.1486V20.48H39.9886ZM39.9886 14.536C40.714 14.536 41.3433 14.6213 41.8766 14.792C42.4153 14.9573 42.8606 15.1947 43.2126 15.504C43.5646 15.8133 43.826 16.1867 43.9966 16.624C44.1726 17.0613 44.2606 17.5493 44.2606 18.088C44.2606 18.6213 44.1673 19.1093 43.9806 19.552C43.794 19.9947 43.5193 20.376 43.1566 20.696C42.7993 21.016 42.354 21.2667 41.8206 21.448C41.2926 21.624 40.682 21.712 39.9886 21.712H38.1486V26H36.6046V14.536H39.9886ZM47.3351 17.896V26H45.9111V17.896H47.3351ZM47.6391 15.352C47.6391 15.4907 47.6098 15.6213 47.5511 15.744C47.4978 15.8613 47.4231 15.968 47.3271 16.064C47.2365 16.1547 47.1271 16.2267 46.9991 16.28C46.8765 16.3333 46.7458 16.36 46.6071 16.36C46.4685 16.36 46.3378 16.3333 46.2151 16.28C46.0978 16.2267 45.9938 16.1547 45.9031 16.064C45.8125 15.968 45.7405 15.8613 45.6871 15.744C45.6338 15.6213 45.6071 15.4907 45.6071 15.352C45.6071 15.2133 45.6338 15.0827 45.6871 14.96C45.7405 14.832 45.8125 14.7227 45.9031 14.632C45.9938 14.536 46.0978 14.4613 46.2151 14.408C46.3378 14.3547 46.4685 14.328 46.6071 14.328C46.7458 14.328 46.8765 14.3547 46.9991 14.408C47.1271 14.4613 47.2365 14.536 47.3271 14.632C47.4231 14.7227 47.4978 14.832 47.5511 14.96C47.6098 15.0827 47.6391 15.2133 47.6391 15.352ZM55.3149 19.336C55.2722 19.3947 55.2295 19.44 55.1869 19.472C55.1442 19.504 55.0855 19.52 55.0109 19.52C54.9309 19.52 54.8429 19.488 54.7469 19.424C54.6509 19.3547 54.5309 19.28 54.3869 19.2C54.2482 19.12 54.0749 19.048 53.8669 18.984C53.6642 18.9147 53.4135 18.88 53.1149 18.88C52.7149 18.88 52.3629 18.952 52.0589 19.096C51.7549 19.2347 51.4989 19.4373 51.2909 19.704C51.0882 19.9707 50.9335 20.2933 50.8269 20.672C50.7255 21.0507 50.6749 21.4747 50.6749 21.944C50.6749 22.4347 50.7309 22.872 50.8429 23.256C50.9549 23.6347 51.1122 23.9547 51.3149 24.216C51.5229 24.472 51.7709 24.6693 52.0589 24.808C52.3522 24.9413 52.6802 25.008 53.0429 25.008C53.3895 25.008 53.6749 24.968 53.8989 24.888C54.1229 24.8027 54.3069 24.7093 54.4509 24.608C54.6002 24.5067 54.7229 24.416 54.8189 24.336C54.9202 24.2507 55.0189 24.208 55.1149 24.208C55.2322 24.208 55.3229 24.2533 55.3869 24.344L55.7869 24.864C55.6109 25.0827 55.4109 25.2693 55.1869 25.424C54.9629 25.5787 54.7202 25.7093 54.4589 25.816C54.2029 25.9173 53.9335 25.992 53.6509 26.04C53.3682 26.088 53.0802 26.112 52.7869 26.112C52.2802 26.112 51.8082 26.0187 51.3709 25.832C50.9389 25.6453 50.5629 25.376 50.2429 25.024C49.9229 24.6667 49.6722 24.2293 49.4909 23.712C49.3095 23.1947 49.2189 22.6053 49.2189 21.944C49.2189 21.3413 49.3015 20.784 49.4669 20.272C49.6375 19.76 49.8829 19.32 50.2029 18.952C50.5282 18.5787 50.9255 18.288 51.3949 18.08C51.8695 17.872 52.4135 17.768 53.0269 17.768C53.5975 17.768 54.0989 17.8613 54.5309 18.048C54.9682 18.2293 55.3549 18.488 55.6909 18.824L55.3149 19.336ZM58.7475 14.216V21.152H59.1155C59.2222 21.152 59.3102 21.1387 59.3795 21.112C59.4542 21.08 59.5315 21.0187 59.6115 20.928L62.1715 18.184C62.2462 18.0933 62.3235 18.024 62.4035 17.976C62.4888 17.9227 62.6008 17.896 62.7395 17.896H64.0275L61.0435 21.072C60.8995 21.2533 60.7448 21.3947 60.5795 21.496C60.6755 21.56 60.7608 21.6347 60.8355 21.72C60.9155 21.8 60.9902 21.8933 61.0595 22L64.2275 26H62.9555C62.8328 26 62.7262 25.9813 62.6355 25.944C62.5502 25.9013 62.4755 25.8267 62.4115 25.72L59.7475 22.4C59.6675 22.288 59.5875 22.216 59.5075 22.184C59.4328 22.1467 59.3155 22.128 59.1555 22.128H58.7475V26H57.3155V14.216H58.7475ZM70.4114 21.064C70.4114 20.7333 70.3634 20.432 70.2674 20.16C70.1767 19.8827 70.0407 19.6453 69.8594 19.448C69.6834 19.2453 69.4674 19.0907 69.2114 18.984C68.9554 18.872 68.6647 18.816 68.3394 18.816C67.6567 18.816 67.1154 19.016 66.7154 19.416C66.3207 19.8107 66.0754 20.36 65.9794 21.064H70.4114ZM71.5634 24.864C71.3874 25.0773 71.1767 25.264 70.9314 25.424C70.686 25.5787 70.422 25.7067 70.1394 25.808C69.862 25.9093 69.574 25.984 69.2754 26.032C68.9767 26.0853 68.6807 26.112 68.3874 26.112C67.8274 26.112 67.31 26.0187 66.8354 25.832C66.366 25.64 65.958 25.3627 65.6114 25C65.27 24.632 65.0034 24.1787 64.8114 23.64C64.6194 23.1013 64.5234 22.4827 64.5234 21.784C64.5234 21.2187 64.6087 20.6907 64.7794 20.2C64.9554 19.7093 65.206 19.2853 65.5314 18.928C65.8567 18.5653 66.254 18.2827 66.7234 18.08C67.1927 17.872 67.7207 17.768 68.3074 17.768C68.7927 17.768 69.2407 17.8507 69.6514 18.016C70.0674 18.176 70.4247 18.4107 70.7234 18.72C71.0274 19.024 71.2647 19.4027 71.4354 19.856C71.606 20.304 71.6914 20.816 71.6914 21.392C71.6914 21.616 71.6674 21.7653 71.6194 21.84C71.5714 21.9147 71.4807 21.952 71.3474 21.952H65.9314C65.9474 22.464 66.0167 22.9093 66.1394 23.288C66.2674 23.6667 66.4434 23.984 66.6674 24.24C66.8914 24.4907 67.158 24.68 67.4674 24.808C67.7767 24.9307 68.1234 24.992 68.5074 24.992C68.8647 24.992 69.1714 24.952 69.4274 24.872C69.6887 24.7867 69.9127 24.696 70.0994 24.6C70.286 24.504 70.4407 24.416 70.5634 24.336C70.6914 24.2507 70.8007 24.208 70.8914 24.208C71.0087 24.208 71.0994 24.2533 71.1634 24.344L71.5634 24.864ZM78.7205 19.824C78.4538 19.4667 78.1658 19.2187 77.8565 19.08C77.5472 18.936 77.2005 18.864 76.8165 18.864C76.0645 18.864 75.4858 19.1333 75.0805 19.672C74.6752 20.2107 74.4725 20.9787 74.4725 21.976C74.4725 22.504 74.5178 22.9573 74.6085 23.336C74.6992 23.7093 74.8325 24.0187 75.0085 24.264C75.1845 24.504 75.4005 24.68 75.6565 24.792C75.9125 24.904 76.2032 24.96 76.5285 24.96C76.9978 24.96 77.4058 24.8533 77.7525 24.64C78.1045 24.4267 78.4272 24.1253 78.7205 23.736V19.824ZM80.1445 14.216V26H79.2965C79.0938 26 78.9658 25.9013 78.9125 25.704L78.7845 24.72C78.4378 25.136 78.0432 25.472 77.6005 25.728C77.1578 25.984 76.6458 26.112 76.0645 26.112C75.6005 26.112 75.1792 26.024 74.8005 25.848C74.4218 25.6667 74.0992 25.4027 73.8325 25.056C73.5658 24.7093 73.3605 24.2773 73.2165 23.76C73.0725 23.2427 73.0005 22.648 73.0005 21.976C73.0005 21.3787 73.0805 20.824 73.2405 20.312C73.4005 19.7947 73.6298 19.3467 73.9285 18.968C74.2272 18.5893 74.5925 18.2933 75.0245 18.08C75.4618 17.8613 75.9525 17.752 76.4965 17.752C76.9925 17.752 77.4165 17.8373 77.7685 18.008C78.1258 18.1733 78.4432 18.4053 78.7205 18.704V14.216H80.1445ZM91.2474 24.768C91.722 24.768 92.146 24.688 92.5194 24.528C92.8927 24.368 93.2074 24.144 93.4634 23.856C93.7247 23.568 93.922 23.224 94.0554 22.824C94.194 22.424 94.2634 21.984 94.2634 21.504V14.536H95.8074V21.504C95.8074 22.1653 95.7007 22.7787 95.4874 23.344C95.2794 23.9093 94.978 24.4 94.5834 24.816C94.194 25.2267 93.7167 25.5493 93.1514 25.784C92.586 26.0187 91.9514 26.136 91.2474 26.136C90.5434 26.136 89.9087 26.0187 89.3434 25.784C88.778 25.5493 88.298 25.2267 87.9034 24.816C87.5087 24.4 87.2047 23.9093 86.9914 23.344C86.7834 22.7787 86.6794 22.1653 86.6794 21.504V14.536H88.2234V21.496C88.2234 21.976 88.29 22.416 88.4234 22.816C88.562 23.216 88.7594 23.56 89.0154 23.848C89.2767 24.136 89.594 24.3627 89.9674 24.528C90.346 24.688 90.7727 24.768 91.2474 24.768ZM99.4506 24.048C99.712 24.4 99.9973 24.648 100.307 24.792C100.616 24.936 100.963 25.008 101.347 25.008C102.104 25.008 102.685 24.7387 103.091 24.2C103.496 23.6613 103.699 22.8933 103.699 21.896C103.699 21.368 103.651 20.9147 103.555 20.536C103.464 20.1573 103.331 19.848 103.155 19.608C102.979 19.3627 102.763 19.184 102.507 19.072C102.251 18.96 101.96 18.904 101.635 18.904C101.171 18.904 100.763 19.0107 100.411 19.224C100.064 19.4373 99.744 19.7387 99.4506 20.128V24.048ZM99.3786 19.152C99.72 18.7307 100.115 18.392 100.563 18.136C101.011 17.88 101.523 17.752 102.099 17.752C102.568 17.752 102.992 17.8427 103.371 18.024C103.749 18.2 104.072 18.464 104.339 18.816C104.605 19.1627 104.811 19.5947 104.955 20.112C105.099 20.6293 105.171 21.224 105.171 21.896C105.171 22.4933 105.091 23.0507 104.931 23.568C104.771 24.08 104.539 24.5253 104.235 24.904C103.936 25.2773 103.568 25.5733 103.131 25.792C102.699 26.0053 102.211 26.112 101.667 26.112C101.171 26.112 100.744 26.0293 100.387 25.864C100.035 25.6933 99.7226 25.4587 99.4506 25.16V28.744H98.0186V17.896H98.8746C99.0773 17.896 99.2026 17.9947 99.2506 18.192L99.3786 19.152Z" fill="#4C4C4C"/>
<defs>
<clipPath id="clip0_845_11379">
<rect width="14" height="14" fill="white" transform="translate(15 12.5)"/>
</clipPath>
</defs>
</svg>
