<svg width="116" height="27" viewBox="0 0 116 27" fill="none" xmlns="http://www.w3.org/2000/svg">
<rect width="116" height="27" rx="13.5" fill="#FFFACB"/>
<path d="M17.0306 10.9584H14.4056C14.2509 10.9584 14.1025 10.897 13.9931 10.7876C13.8837 10.6782 13.8223 10.5298 13.8223 10.3751V7.75008C13.8223 7.59537 13.8837 7.447 13.9931 7.3376C14.1025 7.22821 14.2509 7.16675 14.4056 7.16675C14.5603 7.16675 14.7087 7.22821 14.8181 7.3376C14.9275 7.447 14.9889 7.59537 14.9889 7.75008V9.79175H17.0306C17.1853 9.79175 17.3337 9.85321 17.4431 9.9626C17.5525 10.072 17.6139 10.2204 17.6139 10.3751C17.6139 10.5298 17.5525 10.6782 17.4431 10.7876C17.3337 10.897 17.1853 10.9584 17.0306 10.9584Z" fill="#685E02"/>
<path d="M24.2499 13.5834C24.0952 13.5834 23.9468 13.5219 23.8374 13.4125C23.728 13.3031 23.6666 13.1547 23.6666 13C23.667 11.9731 23.3285 10.9747 22.7035 10.1598C22.0786 9.34495 21.2021 8.75912 20.2102 8.49326C19.2183 8.22739 18.1664 8.29636 17.2176 8.68945C16.2689 9.08254 15.4765 9.77777 14.9632 10.6673C14.8857 10.8012 14.7582 10.8988 14.6087 10.9387C14.4592 10.9785 14.3 10.9574 14.1661 10.8799C14.0322 10.8024 13.9346 10.6749 13.8947 10.5254C13.8548 10.3759 13.876 10.2167 13.9535 10.0828C14.5953 8.97107 15.5861 8.10226 16.772 7.61112C17.958 7.11998 19.273 7.03396 20.5128 7.36641C21.7527 7.69886 22.8482 8.4312 23.6294 9.44981C24.4105 10.4684 24.8337 11.7164 24.8332 13C24.8332 13.1547 24.7718 13.3031 24.6624 13.4125C24.553 13.5219 24.4046 13.5834 24.2499 13.5834ZM23.5937 18.8334C23.4389 18.8334 23.2906 18.7719 23.1812 18.6625C23.0718 18.5531 23.0103 18.4047 23.0103 18.25V16.2084H20.9687C20.8139 16.2084 20.6656 16.1469 20.5562 16.0375C20.4468 15.9281 20.3853 15.7797 20.3853 15.625C20.3853 15.4703 20.4468 15.3219 20.5562 15.2125C20.6656 15.1031 20.8139 15.0417 20.9687 15.0417H23.5937C23.7484 15.0417 23.8967 15.1031 24.0061 15.2125C24.1155 15.3219 24.177 15.4703 24.177 15.625V18.25C24.177 18.4047 24.1155 18.5531 24.0061 18.6625C23.8967 18.7719 23.7484 18.8334 23.5937 18.8334Z" fill="#685E02"/>
<path d="M18.9993 18.8334C17.4528 18.8316 15.9702 18.2164 14.8766 17.1228C13.783 16.0293 13.1679 14.5466 13.166 13.0001C13.166 12.8454 13.2275 12.697 13.3369 12.5876C13.4463 12.4782 13.5946 12.4167 13.7493 12.4167C13.9041 12.4167 14.0524 12.4782 14.1618 12.5876C14.2712 12.697 14.3327 12.8454 14.3327 13.0001C14.3322 14.027 14.6708 15.0254 15.2957 15.8403C15.9207 16.6552 16.7971 17.241 17.789 17.5068C18.781 17.7727 19.8329 17.7037 20.7816 17.3107C21.7303 16.9176 22.5228 16.2223 23.036 15.3328C23.0744 15.2665 23.1255 15.2084 23.1863 15.1619C23.2471 15.1153 23.3165 15.0812 23.3905 15.0614C23.4646 15.0417 23.5417 15.0367 23.6177 15.0468C23.6936 15.0569 23.7668 15.0818 23.8331 15.1202C23.8994 15.1586 23.9575 15.2096 24.0041 15.2705C24.0507 15.3313 24.0848 15.4007 24.1045 15.4747C24.1243 15.5488 24.1293 15.6259 24.1192 15.7019C24.1091 15.7778 24.0841 15.851 24.0458 15.9173C23.5327 16.8019 22.7968 17.5367 21.9114 18.0483C21.026 18.56 20.022 18.8306 18.9993 18.8334Z" fill="#685E02"/>
<path d="M33.3653 19H31.6028V8.2H33.3653V19ZM37.0144 12.3625C37.1794 12.1925 37.3494 12.04 37.5244 11.905C37.7044 11.765 37.8944 11.645 38.0944 11.545C38.2944 11.445 38.5069 11.3675 38.7319 11.3125C38.9569 11.2575 39.2019 11.23 39.4669 11.23C39.8869 11.23 40.2544 11.3 40.5694 11.44C40.8894 11.58 41.1569 11.7775 41.3719 12.0325C41.5919 12.2875 41.7569 12.595 41.8669 12.955C41.9769 13.31 42.0319 13.7025 42.0319 14.1325V19H40.4269V14.1325C40.4269 13.6175 40.3069 13.2175 40.0669 12.9325C39.8319 12.6475 39.4719 12.505 38.9869 12.505C38.6269 12.505 38.2919 12.5875 37.9819 12.7525C37.6769 12.9175 37.3894 13.1425 37.1194 13.4275V19H35.5069V11.35H36.4819C36.7019 11.35 36.8419 11.4525 36.9019 11.6575L37.0144 12.3625ZM51.3105 13.705C51.7005 13.705 52.043 13.655 52.338 13.555C52.638 13.455 52.8855 13.315 53.0805 13.135C53.2805 12.95 53.4305 12.7275 53.5305 12.4675C53.6305 12.2075 53.6805 11.9175 53.6805 11.5975C53.6805 11.2825 53.6305 11 53.5305 10.75C53.4355 10.5 53.2905 10.2875 53.0955 10.1125C52.9005 9.9375 52.653 9.805 52.353 9.715C52.058 9.62 51.7105 9.5725 51.3105 9.5725H49.7055V13.705H51.3105ZM51.3105 8.2C52.0155 8.2 52.6255 8.2825 53.1405 8.4475C53.6605 8.6125 54.088 8.845 54.423 9.145C54.763 9.44 55.0155 9.7975 55.1805 10.2175C55.3455 10.6325 55.428 11.0925 55.428 11.5975C55.428 12.1125 55.3405 12.585 55.1655 13.015C54.9905 13.44 54.7305 13.8075 54.3855 14.1175C54.0405 14.4225 53.6105 14.6625 53.0955 14.8375C52.5855 15.0075 51.9905 15.0925 51.3105 15.0925H49.7055V19H47.9505V8.2H51.3105ZM58.1964 12.7675C58.4364 12.2825 58.7264 11.9025 59.0664 11.6275C59.4064 11.3475 59.8139 11.2075 60.2889 11.2075C60.4539 11.2075 60.6089 11.2275 60.7539 11.2675C60.8989 11.3025 61.0289 11.3575 61.1439 11.4325L61.0314 12.6475C61.0114 12.7325 60.9789 12.7925 60.9339 12.8275C60.8939 12.8575 60.8389 12.8725 60.7689 12.8725C60.6939 12.8725 60.5864 12.86 60.4464 12.835C60.3064 12.805 60.1589 12.79 60.0039 12.79C59.7789 12.79 59.5789 12.8225 59.4039 12.8875C59.2339 12.9525 59.0789 13.0475 58.9389 13.1725C58.8039 13.2975 58.6839 13.45 58.5789 13.63C58.4739 13.81 58.3764 14.015 58.2864 14.245V19H56.6739V11.35H57.6114C57.7814 11.35 57.8989 11.3825 57.9639 11.4475C58.0289 11.5075 58.0739 11.615 58.0989 11.77L58.1964 12.7675ZM65.2548 11.23C65.8198 11.23 66.3298 11.3225 66.7848 11.5075C67.2448 11.6925 67.6348 11.955 67.9548 12.295C68.2798 12.635 68.5298 13.0475 68.7048 13.5325C68.8798 14.0175 68.9673 14.5625 68.9673 15.1675C68.9673 15.7725 68.8798 16.3175 68.7048 16.8025C68.5298 17.2875 68.2798 17.7025 67.9548 18.0475C67.6348 18.3875 67.2448 18.65 66.7848 18.835C66.3298 19.02 65.8198 19.1125 65.2548 19.1125C64.6848 19.1125 64.1698 19.02 63.7098 18.835C63.2548 18.65 62.8648 18.3875 62.5398 18.0475C62.2148 17.7025 61.9648 17.2875 61.7898 16.8025C61.6148 16.3175 61.5273 15.7725 61.5273 15.1675C61.5273 14.5625 61.6148 14.0175 61.7898 13.5325C61.9648 13.0475 62.2148 12.635 62.5398 12.295C62.8648 11.955 63.2548 11.6925 63.7098 11.5075C64.1698 11.3225 64.6848 11.23 65.2548 11.23ZM65.2548 17.8525C65.9448 17.8525 66.4573 17.6225 66.7923 17.1625C67.1323 16.6975 67.3023 16.035 67.3023 15.175C67.3023 14.315 67.1323 13.6525 66.7923 13.1875C66.4573 12.7175 65.9448 12.4825 65.2548 12.4825C64.5548 12.4825 64.0348 12.7175 63.6948 13.1875C63.3548 13.6525 63.1848 14.315 63.1848 15.175C63.1848 16.035 63.3548 16.6975 63.6948 17.1625C64.0348 17.6225 64.5548 17.8525 65.2548 17.8525ZM73.1881 15.1075C73.6881 15.1075 74.0631 14.98 74.3131 14.725C74.5631 14.47 74.6881 14.1375 74.6881 13.7275C74.6881 13.3075 74.5631 12.975 74.3131 12.73C74.0631 12.485 73.6881 12.3625 73.1881 12.3625C72.6931 12.3625 72.3181 12.485 72.0631 12.73C71.8131 12.975 71.6881 13.3075 71.6881 13.7275C71.6881 13.9275 71.7206 14.1125 71.7856 14.2825C71.8506 14.4525 71.9456 14.6 72.0706 14.725C72.1956 14.845 72.3506 14.94 72.5356 15.01C72.7256 15.075 72.9431 15.1075 73.1881 15.1075ZM75.4306 19.375C75.4306 19.205 75.3806 19.07 75.2806 18.97C75.1856 18.865 75.0556 18.785 74.8906 18.73C74.7256 18.67 74.5331 18.6275 74.3131 18.6025C74.0931 18.5725 73.8581 18.5525 73.6081 18.5425C73.3631 18.5275 73.1106 18.515 72.8506 18.505C72.5956 18.49 72.3481 18.465 72.1081 18.43C71.8681 18.555 71.6706 18.705 71.5156 18.88C71.3656 19.055 71.2906 19.2575 71.2906 19.4875C71.2906 19.6375 71.3281 19.7775 71.4031 19.9075C71.4831 20.0375 71.6031 20.15 71.7631 20.245C71.9281 20.34 72.1356 20.415 72.3856 20.47C72.6406 20.525 72.9456 20.5525 73.3006 20.5525C74.0106 20.5525 74.5431 20.4425 74.8981 20.2225C75.2531 20.0025 75.4306 19.72 75.4306 19.375ZM77.0506 11.6275V12.2275C77.0506 12.4275 76.9306 12.55 76.6906 12.595L75.9256 12.7225C76.0556 13.0125 76.1206 13.335 76.1206 13.69C76.1206 14.065 76.0456 14.405 75.8956 14.71C75.7506 15.015 75.5481 15.275 75.2881 15.49C75.0281 15.705 74.7181 15.87 74.3581 15.985C73.9981 16.1 73.6081 16.1575 73.1881 16.1575C73.0281 16.1575 72.8706 16.15 72.7156 16.135C72.5656 16.115 72.4181 16.09 72.2731 16.06C72.1281 16.145 72.0206 16.235 71.9506 16.33C71.8806 16.425 71.8456 16.5225 71.8456 16.6225C71.8456 16.7875 71.9181 16.91 72.0631 16.99C72.2081 17.07 72.3981 17.1275 72.6331 17.1625C72.8731 17.1975 73.1456 17.22 73.4506 17.23C73.7556 17.24 74.0656 17.2575 74.3806 17.2825C74.6956 17.3075 75.0056 17.35 75.3106 17.41C75.6156 17.465 75.8856 17.56 76.1206 17.695C76.3606 17.825 76.5531 18.0025 76.6981 18.2275C76.8431 18.4525 76.9156 18.745 76.9156 19.105C76.9156 19.435 76.8331 19.7575 76.6681 20.0725C76.5031 20.3875 76.2631 20.6675 75.9481 20.9125C75.6381 21.1575 75.2581 21.3525 74.8081 21.4975C74.3581 21.6475 73.8456 21.7225 73.2706 21.7225C72.7006 21.7225 72.2031 21.6675 71.7781 21.5575C71.3581 21.4475 71.0056 21.2975 70.7206 21.1075C70.4406 20.9225 70.2306 20.7075 70.0906 20.4625C69.9556 20.2175 69.8881 19.9625 69.8881 19.6975C69.8881 19.3375 70.0006 19.03 70.2256 18.775C70.4556 18.52 70.7656 18.32 71.1556 18.175C70.9456 18.075 70.7756 17.9375 70.6456 17.7625C70.5206 17.5875 70.4581 17.3575 70.4581 17.0725C70.4581 16.8475 70.5406 16.6125 70.7056 16.3675C70.8706 16.1225 71.1181 15.915 71.4481 15.745C71.0681 15.535 70.7681 15.2575 70.5481 14.9125C70.3281 14.5625 70.2181 14.155 70.2181 13.69C70.2181 13.31 70.2906 12.9675 70.4356 12.6625C70.5856 12.3575 70.7931 12.0975 71.0581 11.8825C71.3231 11.6675 71.6356 11.5025 71.9956 11.3875C72.3606 11.2725 72.7581 11.215 73.1881 11.215C73.8481 11.215 74.4231 11.3525 74.9131 11.6275H77.0506ZM79.8468 12.7675C80.0868 12.2825 80.3768 11.9025 80.7168 11.6275C81.0568 11.3475 81.4643 11.2075 81.9393 11.2075C82.1043 11.2075 82.2593 11.2275 82.4043 11.2675C82.5493 11.3025 82.6793 11.3575 82.7943 11.4325L82.6818 12.6475C82.6618 12.7325 82.6293 12.7925 82.5843 12.8275C82.5443 12.8575 82.4893 12.8725 82.4193 12.8725C82.3443 12.8725 82.2368 12.86 82.0968 12.835C81.9568 12.805 81.8093 12.79 81.6543 12.79C81.4293 12.79 81.2293 12.8225 81.0543 12.8875C80.8843 12.9525 80.7293 13.0475 80.5893 13.1725C80.4543 13.2975 80.3343 13.45 80.2293 13.63C80.1243 13.81 80.0268 14.015 79.9368 14.245V19H78.3243V11.35H79.2618C79.4318 11.35 79.5493 11.3825 79.6143 11.4475C79.6793 11.5075 79.7243 11.615 79.7493 11.77L79.8468 12.7675ZM88.6152 14.3125C88.6152 14.0425 88.5752 13.7925 88.4952 13.5625C88.4202 13.3275 88.3077 13.125 88.1577 12.955C88.0077 12.78 87.8202 12.645 87.5952 12.55C87.3752 12.45 87.1202 12.4 86.8302 12.4C86.2452 12.4 85.7852 12.5675 85.4502 12.9025C85.1152 13.2375 84.9027 13.7075 84.8127 14.3125H88.6152ZM84.7677 15.3025C84.7877 15.7375 84.8552 16.115 84.9702 16.435C85.0852 16.75 85.2377 17.0125 85.4277 17.2225C85.6227 17.4325 85.8527 17.59 86.1177 17.695C86.3877 17.795 86.6877 17.845 87.0177 17.845C87.3327 17.845 87.6052 17.81 87.8352 17.74C88.0652 17.665 88.2652 17.585 88.4352 17.5C88.6052 17.41 88.7502 17.33 88.8702 17.26C88.9902 17.185 89.1002 17.1475 89.2002 17.1475C89.3302 17.1475 89.4302 17.1975 89.5002 17.2975L89.9577 17.89C89.7677 18.115 89.5527 18.305 89.3127 18.46C89.0727 18.615 88.8177 18.7425 88.5477 18.8425C88.2777 18.9375 88.0002 19.005 87.7152 19.045C87.4302 19.09 87.1527 19.1125 86.8827 19.1125C86.3527 19.1125 85.8602 19.025 85.4052 18.85C84.9552 18.67 84.5627 18.4075 84.2277 18.0625C83.8977 17.7175 83.6377 17.29 83.4477 16.78C83.2627 16.27 83.1702 15.6825 83.1702 15.0175C83.1702 14.4875 83.2527 13.9925 83.4177 13.5325C83.5877 13.0725 83.8277 12.6725 84.1377 12.3325C84.4527 11.9925 84.8327 11.725 85.2777 11.53C85.7277 11.33 86.2352 11.23 86.8002 11.23C87.2702 11.23 87.7052 11.3075 88.1052 11.4625C88.5052 11.6125 88.8502 11.835 89.1402 12.13C89.4302 12.425 89.6552 12.7875 89.8152 13.2175C89.9802 13.6425 90.0627 14.1275 90.0627 14.6725C90.0627 14.9225 90.0352 15.09 89.9802 15.175C89.9252 15.26 89.8252 15.3025 89.6802 15.3025H84.7677ZM96.134 12.7375C96.094 12.8075 96.049 12.8575 95.999 12.8875C95.949 12.9175 95.8865 12.9325 95.8115 12.9325C95.7265 12.9325 95.634 12.9075 95.534 12.8575C95.434 12.8025 95.3165 12.7425 95.1815 12.6775C95.0465 12.6125 94.8865 12.555 94.7015 12.505C94.5215 12.45 94.309 12.4225 94.064 12.4225C93.864 12.4225 93.6815 12.4475 93.5165 12.4975C93.3565 12.5425 93.219 12.61 93.104 12.7C92.994 12.785 92.909 12.8875 92.849 13.0075C92.789 13.1225 92.759 13.2475 92.759 13.3825C92.759 13.5625 92.814 13.7125 92.924 13.8325C93.034 13.9525 93.179 14.0575 93.359 14.1475C93.539 14.2325 93.744 14.31 93.974 14.38C94.204 14.45 94.439 14.525 94.679 14.605C94.919 14.685 95.154 14.7775 95.384 14.8825C95.614 14.9875 95.819 15.1175 95.999 15.2725C96.179 15.4225 96.324 15.6075 96.434 15.8275C96.544 16.0425 96.599 16.305 96.599 16.615C96.599 16.975 96.534 17.3075 96.404 17.6125C96.274 17.9175 96.084 18.1825 95.834 18.4075C95.584 18.6325 95.2715 18.8075 94.8965 18.9325C94.5265 19.0575 94.1015 19.12 93.6215 19.12C93.3565 19.12 93.099 19.095 92.849 19.045C92.604 19 92.369 18.9375 92.144 18.8575C91.924 18.7725 91.7165 18.6725 91.5215 18.5575C91.3315 18.4425 91.1615 18.3175 91.0115 18.1825L91.3865 17.5675C91.4315 17.4925 91.4865 17.435 91.5515 17.395C91.6215 17.35 91.7065 17.3275 91.8065 17.3275C91.9115 17.3275 92.014 17.3625 92.114 17.4325C92.219 17.4975 92.339 17.57 92.474 17.65C92.614 17.73 92.7815 17.805 92.9765 17.875C93.1715 17.94 93.414 17.9725 93.704 17.9725C93.944 17.9725 94.1515 17.945 94.3265 17.89C94.5015 17.83 94.6465 17.75 94.7615 17.65C94.8765 17.55 94.9615 17.4375 95.0165 17.3125C95.0715 17.1825 95.099 17.045 95.099 16.9C95.099 16.705 95.044 16.545 94.934 16.42C94.824 16.295 94.6765 16.1875 94.4915 16.0975C94.3115 16.0075 94.104 15.9275 93.869 15.8575C93.639 15.7875 93.404 15.7125 93.164 15.6325C92.924 15.5525 92.6865 15.46 92.4515 15.355C92.2215 15.25 92.014 15.1175 91.829 14.9575C91.649 14.7925 91.504 14.595 91.394 14.365C91.284 14.13 91.229 13.845 91.229 13.51C91.229 13.205 91.289 12.915 91.409 12.64C91.534 12.365 91.714 12.1225 91.949 11.9125C92.189 11.7025 92.4815 11.5375 92.8265 11.4175C93.1765 11.2925 93.579 11.23 94.034 11.23C94.549 11.23 95.0165 11.3125 95.4365 11.4775C95.8565 11.6425 96.209 11.8675 96.494 12.1525L96.134 12.7375ZM102.682 12.7375C102.642 12.8075 102.597 12.8575 102.547 12.8875C102.497 12.9175 102.434 12.9325 102.359 12.9325C102.274 12.9325 102.182 12.9075 102.082 12.8575C101.982 12.8025 101.864 12.7425 101.729 12.6775C101.594 12.6125 101.434 12.555 101.249 12.505C101.069 12.45 100.857 12.4225 100.612 12.4225C100.412 12.4225 100.229 12.4475 100.064 12.4975C99.9043 12.5425 99.7668 12.61 99.6518 12.7C99.5418 12.785 99.4568 12.8875 99.3968 13.0075C99.3368 13.1225 99.3068 13.2475 99.3068 13.3825C99.3068 13.5625 99.3618 13.7125 99.4718 13.8325C99.5818 13.9525 99.7268 14.0575 99.9068 14.1475C100.087 14.2325 100.292 14.31 100.522 14.38C100.752 14.45 100.987 14.525 101.227 14.605C101.467 14.685 101.702 14.7775 101.932 14.8825C102.162 14.9875 102.367 15.1175 102.547 15.2725C102.727 15.4225 102.872 15.6075 102.982 15.8275C103.092 16.0425 103.147 16.305 103.147 16.615C103.147 16.975 103.082 17.3075 102.952 17.6125C102.822 17.9175 102.632 18.1825 102.382 18.4075C102.132 18.6325 101.819 18.8075 101.444 18.9325C101.074 19.0575 100.649 19.12 100.169 19.12C99.9043 19.12 99.6468 19.095 99.3968 19.045C99.1518 19 98.9168 18.9375 98.6918 18.8575C98.4718 18.7725 98.2643 18.6725 98.0693 18.5575C97.8793 18.4425 97.7093 18.3175 97.5593 18.1825L97.9343 17.5675C97.9793 17.4925 98.0343 17.435 98.0993 17.395C98.1693 17.35 98.2543 17.3275 98.3543 17.3275C98.4593 17.3275 98.5618 17.3625 98.6618 17.4325C98.7668 17.4975 98.8868 17.57 99.0218 17.65C99.1618 17.73 99.3293 17.805 99.5243 17.875C99.7193 17.94 99.9618 17.9725 100.252 17.9725C100.492 17.9725 100.699 17.945 100.874 17.89C101.049 17.83 101.194 17.75 101.309 17.65C101.424 17.55 101.509 17.4375 101.564 17.3125C101.619 17.1825 101.647 17.045 101.647 16.9C101.647 16.705 101.592 16.545 101.482 16.42C101.372 16.295 101.224 16.1875 101.039 16.0975C100.859 16.0075 100.652 15.9275 100.417 15.8575C100.187 15.7875 99.9518 15.7125 99.7118 15.6325C99.4718 15.5525 99.2343 15.46 98.9993 15.355C98.7693 15.25 98.5618 15.1175 98.3768 14.9575C98.1968 14.7925 98.0518 14.595 97.9418 14.365C97.8318 14.13 97.7768 13.845 97.7768 13.51C97.7768 13.205 97.8368 12.915 97.9568 12.64C98.0818 12.365 98.2618 12.1225 98.4968 11.9125C98.7368 11.7025 99.0293 11.5375 99.3743 11.4175C99.7243 11.2925 100.127 11.23 100.582 11.23C101.097 11.23 101.564 11.3125 101.984 11.4775C102.404 11.6425 102.757 11.8675 103.042 12.1525L102.682 12.7375Z" fill="#685E02"/>
</svg>
