<svg width="20" height="20" viewBox="0 0 20 20" fill="none" xmlns="http://www.w3.org/2000/svg">
<g id="material-symbols:search">
<path id="Vector" d="M16.3333 17.5L11.0833 12.25C10.6667 12.5833 10.1875 12.8472 9.64583 13.0417C9.10417 13.2361 8.52778 13.3333 7.91667 13.3333C6.40278 13.3333 5.12167 12.8089 4.07333 11.76C3.025 10.7111 2.50056 9.43 2.5 7.91667C2.5 6.40278 3.02444 5.12167 4.07333 4.07333C5.12222 3.025 6.40333 2.50056 7.91667 2.5C9.43056 2.5 10.7119 3.02444 11.7608 4.07333C12.8097 5.12222 13.3339 6.40333 13.3333 7.91667C13.3333 8.52778 13.2361 9.10417 13.0417 9.64583C12.8472 10.1875 12.5833 10.6667 12.25 11.0833L17.5 16.3333L16.3333 17.5ZM7.91667 11.6667C8.95833 11.6667 9.84389 11.3022 10.5733 10.5733C11.3028 9.84444 11.6672 8.95889 11.6667 7.91667C11.6667 6.875 11.3022 5.98972 10.5733 5.26083C9.84444 4.53194 8.95889 4.16722 7.91667 4.16667C6.875 4.16667 5.98972 4.53139 5.26083 5.26083C4.53194 5.99028 4.16722 6.87556 4.16667 7.91667C4.16667 8.95833 4.53139 9.84389 5.26083 10.5733C5.99028 11.3028 6.87556 11.6672 7.91667 11.6667Z" fill="#212121"/>
</g>
</svg>
