<svg width="20" height="20" viewBox="0 0 20 20" fill="none" xmlns="http://www.w3.org/2000/svg">
<g id="solar:case-outline">
<g id="Vector">
<mask id="path-1-inside-1_428_2308" fill="white">
<path fill-rule="evenodd" clip-rule="evenodd" d="M8.81783 1.04179H8.80116C8.70616 1.04179 8.63283 1.04179 8.56283 1.04596C8.12985 1.07228 7.71324 1.22095 7.36141 1.47467C7.00958 1.7284 6.73699 2.07677 6.57533 2.47929C6.54949 2.54346 6.52616 2.61263 6.49616 2.70346L6.49116 2.71929L6.46949 2.78346C6.46169 2.80716 6.45364 2.83077 6.44533 2.85429C6.31199 3.22263 5.86949 3.53013 5.40116 3.54179L3.88449 3.61679C3.22949 3.69346 2.66866 3.85679 2.19449 4.24263C2.0289 4.37736 1.87756 4.52871 1.74283 4.69429C1.35699 5.16929 1.19283 5.7293 1.11616 6.38513C1.04199 7.01846 1.04199 7.8143 1.04199 8.8018V8.8668C1.04199 9.10346 1.04199 9.32513 1.06116 9.5118C1.08199 9.71846 1.13033 9.93846 1.26116 10.1501C1.40785 10.3854 1.62181 10.5712 1.87533 10.6835C1.87783 12.0301 1.89533 13.3901 2.01616 14.5551C2.08699 15.2385 2.19533 15.8793 2.36783 16.426C2.53699 16.9635 2.78699 17.4726 3.18366 17.8243C3.86949 18.4343 4.73366 18.7035 5.81116 18.8326C6.86949 18.9585 8.22616 18.9585 9.95783 18.9585H10.0428C11.7745 18.9585 13.1312 18.9585 14.1895 18.8318C15.267 18.7035 16.1312 18.4343 16.817 17.8243C17.2137 17.4726 17.4637 16.9635 17.6337 16.426C17.8053 15.8793 17.9137 15.2385 17.9845 14.5551C18.1053 13.3901 18.1228 12.0301 18.1253 10.6835C18.3785 10.5711 18.5922 10.3853 18.7387 10.1501C18.8703 9.93846 18.9187 9.71846 18.9395 9.5118C18.9587 9.32513 18.9587 9.10346 18.9587 8.8668V8.8018C18.9587 7.8143 18.9587 7.01846 18.8837 6.38513C18.807 5.7293 18.6437 5.16846 18.2578 4.69429C18.1231 4.52871 17.9717 4.37737 17.8062 4.24263C17.3312 3.85679 16.7712 3.69263 16.1153 3.61596L14.6003 3.54179C14.132 3.53013 13.6895 3.22263 13.5562 2.85429C13.5478 2.83077 13.5398 2.80716 13.532 2.78346L13.5053 2.70263C13.4753 2.61346 13.4528 2.54346 13.4262 2.47846C13.2644 2.0761 12.9917 1.7279 12.6399 1.47433C12.2881 1.22075 11.8715 1.07221 11.4387 1.04596C11.3596 1.04223 11.2803 1.04084 11.2012 1.04179H8.81783ZM6.30949 4.7918H13.692C14.7103 4.7918 15.4237 4.79346 15.9695 4.85763C16.5078 4.92096 16.802 5.03763 17.017 5.21263C17.117 5.29346 17.207 5.38429 17.2878 5.48346C17.4628 5.69846 17.5795 5.99263 17.6428 6.53096C17.7078 7.08263 17.7087 7.80513 17.7087 8.84096C17.7087 9.11263 17.7087 9.27013 17.6962 9.38596C17.6941 9.42134 17.6876 9.45633 17.677 9.49013C17.6711 9.49983 17.6644 9.50903 17.657 9.51763C17.6275 9.53764 17.5956 9.55388 17.562 9.56596C17.4545 9.61096 17.3037 9.65679 17.0437 9.73429L12.7087 11.0351V10.8335C12.7087 10.2585 12.242 9.79179 11.667 9.79179H8.33366C7.75866 9.79179 7.29199 10.2585 7.29199 10.8335V11.0351L2.95699 9.73513C2.78179 9.68645 2.60884 9.63001 2.43866 9.56596C2.40511 9.55386 2.37319 9.53762 2.34366 9.51763L7.29199 11.0351L2.32366 9.49013C2.31295 9.45634 2.30651 9.42135 2.30449 9.38596C2.2923 9.20457 2.28812 9.02272 2.29199 8.84096C2.29199 7.80513 2.29283 7.08263 2.35783 6.53096C2.42116 5.99263 2.53783 5.69846 2.71283 5.48346C2.79362 5.38418 2.88437 5.29342 2.98366 5.21263C3.19866 5.03763 3.49283 4.92096 4.03116 4.85763C4.57699 4.79346 5.29033 4.7918 6.30949 4.7918ZM8.81699 2.29179C8.69783 2.29179 8.66449 2.29179 8.63783 2.29346C8.44102 2.30545 8.25165 2.37306 8.09174 2.48841C7.93183 2.60377 7.80795 2.76215 7.73449 2.94513C7.7135 3.00097 7.69404 3.05738 7.67616 3.11429L7.65199 3.18513L7.62033 3.27929C7.58699 3.37096 7.54866 3.45763 7.50366 3.54179H12.4953C12.4349 3.42778 12.3852 3.30838 12.347 3.18513L12.3237 3.11429C12.3057 3.05742 12.2862 3.00101 12.2653 2.94513C12.1918 2.76202 12.0678 2.60357 11.9077 2.4882C11.7477 2.37283 11.5581 2.3053 11.3612 2.29346C11.3015 2.29137 11.2417 2.29082 11.182 2.29179H8.81699ZM3.12699 11.091C3.13283 12.2885 3.15699 13.4385 3.25949 14.4268C3.32616 15.0685 3.42283 15.616 3.55949 16.0501C3.69949 16.4918 3.86116 16.7543 4.01366 16.8901C4.42616 17.2568 4.99533 17.476 5.95949 17.5901C6.93449 17.7068 8.21699 17.7085 10.0003 17.7085C11.7837 17.7085 13.0653 17.7076 14.0412 17.591C15.0053 17.476 15.5745 17.256 15.987 16.8901C16.1395 16.7543 16.3012 16.4918 16.4412 16.0501C16.5778 15.6168 16.6745 15.0685 16.7412 14.4268C16.8437 13.4385 16.8678 12.2876 16.8737 11.091L12.7087 12.3401V12.6351C12.7087 13.0601 12.4495 13.4435 12.0537 13.6018L11.4703 13.8351C10.5267 14.2126 9.47398 14.2126 8.53033 13.8351L7.94699 13.6018C7.75374 13.5245 7.58806 13.3912 7.47131 13.2189C7.35456 13.0466 7.29211 12.8433 7.29199 12.6351V12.3401L3.12699 11.091ZM8.54199 11.0418V12.4935L8.99449 12.6743C9.64033 12.9326 10.3612 12.9326 11.0062 12.6743L11.4587 12.4935V11.0418H8.54199Z"/>
</mask>
<path d="M8.56283 1.04596L8.50341 0.0477273L8.50215 0.0478039L8.56283 1.04596ZM6.57533 2.47929L7.50297 2.85276L7.50328 2.852L6.57533 2.47929ZM6.49616 2.70346L5.54653 2.38982L5.54258 2.40233L6.49616 2.70346ZM6.49116 2.71929L7.4386 3.03921L7.44177 3.02985L7.44474 3.02043L6.49116 2.71929ZM6.46949 2.78346L5.52202 2.46353L5.51959 2.47091L6.46949 2.78346ZM6.44533 2.85429L7.38564 3.19468L7.38818 3.18751L6.44533 2.85429ZM5.40116 3.54179L5.37626 2.5421L5.36401 2.54241L5.35177 2.54302L5.40116 3.54179ZM3.88449 3.61679L3.8351 2.61802L3.80158 2.61967L3.76824 2.62358L3.88449 3.61679ZM2.19449 4.24263L2.82563 5.0183L2.82565 5.01828L2.19449 4.24263ZM1.74283 4.69429L0.967154 4.06316L0.966628 4.0638L1.74283 4.69429ZM1.11616 6.38513L2.10937 6.50144L2.1094 6.50124L1.11616 6.38513ZM1.06116 9.5118L2.05612 9.4115L2.05593 9.40965L1.06116 9.5118ZM1.26116 10.1501L0.410531 10.6759L0.412576 10.6792L1.26116 10.1501ZM1.87533 10.6835L2.87532 10.6816L2.87412 10.0321L2.2802 9.76909L1.87533 10.6835ZM2.01616 14.5551L3.01083 14.452L3.01082 14.452L2.01616 14.5551ZM2.36783 16.426L3.3217 16.1258L3.32147 16.125L2.36783 16.426ZM3.18366 17.8243L3.84825 17.0771L3.84705 17.076L3.18366 17.8243ZM5.81116 18.8326L5.69213 19.8255L5.69309 19.8256L5.81116 18.8326ZM14.1895 18.8318L14.0712 17.8388L14.0707 17.8389L14.1895 18.8318ZM16.817 17.8243L16.1536 17.076L16.1524 17.0771L16.817 17.8243ZM17.6337 16.426L18.5871 16.7275L18.5877 16.7256L17.6337 16.426ZM17.9845 14.5551L16.9898 14.452L16.9898 14.452L17.9845 14.5551ZM18.1253 10.6835L17.7196 9.76946L17.1265 10.0327L17.1253 10.6816L18.1253 10.6835ZM18.7387 10.1501L19.5875 10.6788L19.5878 10.6783L18.7387 10.1501ZM18.9395 9.5118L17.9447 9.40965L17.9445 9.4115L18.9395 9.5118ZM18.8837 6.38513L17.8904 6.50124L17.8906 6.50273L18.8837 6.38513ZM18.2578 4.69429L19.0335 4.06314L19.0335 4.06314L18.2578 4.69429ZM17.8062 4.24263L18.4373 3.46697L18.4366 3.46643L17.8062 4.24263ZM16.1153 3.61596L16.2314 2.62273L16.1979 2.61881L16.1642 2.61716L16.1153 3.61596ZM14.6003 3.54179L14.6492 2.54299L14.6372 2.5424L14.6252 2.5421L14.6003 3.54179ZM13.5562 2.85429L12.6134 3.18781L12.6159 3.19467L13.5562 2.85429ZM13.532 2.78346L14.482 2.47121L14.4816 2.47016L13.532 2.78346ZM13.5053 2.70263L14.455 2.38932L14.4531 2.38374L13.5053 2.70263ZM13.4262 2.47846L12.4983 2.85155L12.501 2.85802L13.4262 2.47846ZM11.4387 1.04596L11.4992 0.0477045L11.4858 0.047071L11.4387 1.04596ZM11.2012 1.04179V2.04187L11.2132 2.04172L11.2012 1.04179ZM15.9695 4.85763L16.0863 3.86448L16.0862 3.86447L15.9695 4.85763ZM17.017 5.21263L16.3857 5.98819L16.3884 5.99033L17.017 5.21263ZM17.2878 5.48346L18.0634 4.85219L18.0629 4.85164L17.2878 5.48346ZM17.6428 6.53096L16.6497 6.6478L16.6497 6.64798L17.6428 6.53096ZM17.6962 9.38596L16.7019 9.27867L16.6993 9.30292L16.6979 9.32726L17.6962 9.38596ZM17.677 9.49013L18.5314 10.0098L18.5944 9.90622L18.6308 9.79061L17.677 9.49013ZM17.657 9.51763L18.218 10.3454L18.3279 10.2709L18.4146 10.1703L17.657 9.51763ZM17.562 9.56596L17.2232 8.62511L17.1993 8.63371L17.1759 8.64352L17.562 9.56596ZM17.0437 9.73429L16.758 8.77596L16.7562 8.77649L17.0437 9.73429ZM12.7087 11.0351H11.7087V12.3793L12.9961 11.9929L12.7087 11.0351ZM7.29199 11.0351L7.00475 11.993L8.29199 12.379V11.0351H7.29199ZM2.95699 9.73513L3.24424 8.77727L3.23448 8.77435L3.22467 8.77162L2.95699 9.73513ZM2.43866 9.56596L2.79092 8.62996L2.77793 8.62527L2.43866 9.56596ZM2.34366 9.51763L2.63685 8.56157L1.78303 10.3457L2.34366 9.51763ZM2.32366 9.49013L1.37038 9.79223L1.52812 10.29L2.02672 10.445L2.32366 9.49013ZM2.30449 9.38596L3.30292 9.32896L3.30224 9.31887L2.30449 9.38596ZM2.29199 8.84096L3.29177 8.86224L3.29199 8.8516V8.84096H2.29199ZM2.35783 6.53096L3.35096 6.64798L3.35098 6.6478L2.35783 6.53096ZM2.71283 5.48346L3.48839 6.11473L3.48846 6.11465L2.71283 5.48346ZM2.98366 5.21263L3.61485 5.98826L3.61493 5.98819L2.98366 5.21263ZM4.03116 4.85763L3.91441 3.86447L3.91432 3.86448L4.03116 4.85763ZM8.63783 2.29346L8.69864 3.29161L8.7002 3.29151L8.63783 2.29346ZM7.73449 2.94513L6.80648 2.57258L6.80236 2.58283L6.79848 2.59317L7.73449 2.94513ZM7.67616 3.11429L8.62259 3.4372L8.62652 3.42568L8.63017 3.41407L7.67616 3.11429ZM7.65199 3.18513L6.70555 2.86222L6.70415 2.86638L7.65199 3.18513ZM7.62033 3.27929L8.56012 3.62104L8.56428 3.60959L8.56817 3.59804L7.62033 3.27929ZM7.50366 3.54179L6.62179 3.0703L5.83505 4.54179H7.50366V3.54179ZM12.4953 3.54179V4.54179H14.1573L13.3788 3.07338L12.4953 3.54179ZM12.347 3.18513L13.3021 2.88888L13.2995 2.88054L13.2968 2.87226L12.347 3.18513ZM12.3237 3.11429L11.3702 3.41619L11.3739 3.42717L12.3237 3.11429ZM12.2653 2.94513L13.2021 2.59524L13.1979 2.58383L13.1933 2.57253L12.2653 2.94513ZM11.3612 2.29346L11.4212 1.29526L11.4086 1.29451L11.3961 1.29407L11.3612 2.29346ZM11.182 2.29179V3.29179H11.1902L11.1983 3.29166L11.182 2.29179ZM3.12699 11.091L3.41427 10.1331L2.12042 9.74506L2.127 11.0958L3.12699 11.091ZM3.25949 14.4268L2.26483 14.53L2.26485 14.5301L3.25949 14.4268ZM3.55949 16.0501L2.60563 16.3504L2.60624 16.3523L3.55949 16.0501ZM4.01366 16.8901L3.34854 17.6369L3.3493 17.6375L4.01366 16.8901ZM5.95949 17.5901L6.0783 16.5972L6.07708 16.5971L5.95949 17.5901ZM14.0412 17.591L13.9227 16.598L13.9225 16.598L14.0412 17.591ZM15.987 16.8901L16.6505 17.6383L16.6521 17.6369L15.987 16.8901ZM16.4412 16.0501L17.3944 16.3523L17.3949 16.3509L16.4412 16.0501ZM16.7412 14.4268L17.7358 14.5301L17.7358 14.53L16.7412 14.4268ZM16.8737 11.091L17.8736 11.0958L17.8802 9.74506L16.5864 10.1331L16.8737 11.091ZM12.7087 12.3401L12.4214 11.3823L11.7087 11.596V12.3401H12.7087ZM12.0537 13.6018L12.425 14.5303L12.425 14.5303L12.0537 13.6018ZM11.4703 13.8351L11.8417 14.7636L11.8417 14.7636L11.4703 13.8351ZM8.53033 13.8351L8.15894 14.7636L8.15896 14.7636L8.53033 13.8351ZM7.94699 13.6018L8.31838 12.6733L8.31819 12.6732L7.94699 13.6018ZM7.29199 12.6351H6.29199L6.29199 12.6357L7.29199 12.6351ZM7.29199 12.3401H8.29199V11.596L7.57927 11.3823L7.29199 12.3401ZM8.54199 11.0418V10.0418H7.54199V11.0418H8.54199ZM8.54199 12.4935H7.54199V13.1707L8.1709 13.4221L8.54199 12.4935ZM8.99449 12.6743L9.36588 11.7458L9.36559 11.7457L8.99449 12.6743ZM11.0062 12.6743L10.6351 11.7457L10.6344 11.746L11.0062 12.6743ZM11.4587 12.4935L11.8298 13.4221L12.4587 13.1707V12.4935H11.4587ZM11.4587 11.0418H12.4587V10.0418H11.4587V11.0418ZM8.81783 0.0417946H8.80116V2.04179H8.81783V0.0417946ZM8.80116 0.0417946C8.71416 0.0417946 8.60898 0.0414439 8.50341 0.0477281L8.62224 2.04419C8.65667 2.04215 8.69816 2.04179 8.80116 2.04179V0.0417946ZM8.50215 0.0478039C7.88024 0.0856098 7.28183 0.299146 6.77648 0.663592L7.94634 2.28576C8.14465 2.14275 8.37946 2.05895 8.6235 2.04412L8.50215 0.0478039ZM6.77648 0.663592C6.27113 1.02804 5.87959 1.52842 5.64738 2.10659L7.50328 2.852C7.5944 2.62512 7.74804 2.42877 7.94634 2.28576L6.77648 0.663592ZM5.64768 2.10583C5.60828 2.20371 5.5757 2.30175 5.54661 2.38985L7.44571 3.01707C7.47661 2.9235 7.49071 2.88322 7.50297 2.85276L5.64768 2.10583ZM5.54258 2.40233L5.53758 2.41816L7.44474 3.02043L7.44974 3.00459L5.54258 2.40233ZM5.54371 2.39938L5.52205 2.46354L7.41694 3.10338L7.4386 3.03921L5.54371 2.39938ZM5.51959 2.47091C5.51407 2.4877 5.50836 2.50442 5.50247 2.52108L7.38818 3.18751C7.39892 3.15712 7.40932 3.12662 7.41939 3.09601L5.51959 2.47091ZM5.50504 2.51392C5.51643 2.48245 5.52741 2.47067 5.52456 2.47409C5.52201 2.47714 5.51198 2.48782 5.49266 2.50075C5.47365 2.51347 5.45151 2.52442 5.42888 2.53191C5.40642 2.53935 5.38834 2.5418 5.37626 2.5421L5.42606 4.54148C6.24931 4.52098 7.09365 4.00121 7.38562 3.19467L5.50504 2.51392ZM5.35177 2.54302L3.8351 2.61802L3.93388 4.61557L5.45055 4.54057L5.35177 2.54302ZM3.76824 2.62358C3.01991 2.71117 2.24507 2.91224 1.56334 3.46697L2.82565 5.01828C3.09225 4.80135 3.43907 4.67576 4.00075 4.61001L3.76824 2.62358ZM1.56335 3.46696C1.34478 3.64481 1.145 3.84458 0.967155 4.06316L2.5185 5.32543C2.61012 5.21283 2.71303 5.10992 2.82563 5.0183L1.56335 3.46696ZM0.966628 4.0638C0.413038 4.74533 0.210697 5.51816 0.122922 6.26902L2.1094 6.50124C2.17495 5.94043 2.30095 5.59326 2.51902 5.32478L0.966628 4.0638ZM0.122946 6.26882C0.0404402 6.97336 0.0419922 7.83662 0.0419922 8.8018H2.04199C2.04199 7.79197 2.04354 7.06356 2.10937 6.50144L0.122946 6.26882ZM0.0419922 8.8018V8.8668H2.04199V8.8018H0.0419922ZM0.0419922 8.8668C0.0419922 9.0878 0.0409007 9.3657 0.066389 9.61394L2.05593 9.40965C2.04308 9.28455 2.04199 9.11912 2.04199 8.8668H0.0419922ZM0.0662014 9.61209C0.0954055 9.9018 0.170495 10.2876 0.410537 10.6759L2.11178 9.62435C2.09016 9.58937 2.06858 9.53513 2.05612 9.4115L0.0662014 9.61209ZM0.412576 10.6792C0.665238 11.0844 1.03378 11.4045 1.47045 11.5978L2.2802 9.76909C2.20984 9.73793 2.15045 9.68637 2.10974 9.62107L0.412576 10.6792ZM0.875327 10.6853C0.877823 12.0294 0.89477 13.4365 1.02149 14.6583L3.01082 14.452C2.89588 13.3438 2.87783 12.0308 2.87532 10.6816L0.875327 10.6853ZM1.02149 14.6582C1.09569 15.374 1.21303 16.0894 1.41418 16.7269L3.32147 16.125C3.17762 15.6692 3.0783 15.1029 3.01083 14.452L1.02149 14.6582ZM1.41395 16.7262C1.60707 17.3398 1.92809 18.0476 2.52027 18.5726L3.84705 17.076C3.64589 16.8977 3.46692 16.5872 3.3217 16.1258L1.41395 16.7262ZM2.51907 18.5715C3.42421 19.3766 4.52389 19.6855 5.69213 19.8255L5.93018 17.8397C4.94343 17.7215 4.31477 17.492 3.84825 17.0771L2.51907 18.5715ZM5.69309 19.8256C6.824 19.9601 8.25005 19.9585 9.95783 19.9585V17.9585C8.20227 17.9585 6.91498 17.9568 5.92922 17.8396L5.69309 19.8256ZM9.95783 19.9585H10.0428V17.9585H9.95783V19.9585ZM10.0428 19.9585C11.7504 19.9585 13.177 19.9601 14.3083 19.8247L14.0707 17.8389C13.0854 17.9568 11.7985 17.9585 10.0428 17.9585V19.9585ZM14.3078 19.8248C15.4766 19.6856 16.5764 19.3766 17.4816 18.5715L16.1524 17.0771C15.686 17.492 15.0574 17.7214 14.0712 17.8388L14.3078 19.8248ZM17.4804 18.5726C18.0725 18.0477 18.3934 17.34 18.5871 16.7275L16.6802 16.1244C16.5339 16.5869 16.3549 16.8976 16.1536 17.076L17.4804 18.5726ZM18.5877 16.7256C18.7876 16.0889 18.905 15.3742 18.9792 14.6582L16.9898 14.452C16.9224 15.1028 16.823 15.6697 16.6796 16.1264L18.5877 16.7256ZM18.9792 14.6583C19.1059 13.4365 19.1228 12.0294 19.1253 10.6853L17.1253 10.6816C17.1228 12.0308 17.1048 13.3438 16.9898 14.452L18.9792 14.6583ZM18.531 11.5975C18.9672 11.4039 19.3352 11.0839 19.5875 10.6788L17.8898 9.62144C17.8492 9.6867 17.7899 9.73826 17.7196 9.76946L18.531 11.5975ZM19.5878 10.6783C19.83 10.2889 19.9052 9.90191 19.9345 9.61209L17.9445 9.4115C17.9321 9.53501 17.9106 9.58799 17.8895 9.62193L19.5878 10.6783ZM19.9343 9.61394C19.9598 9.3657 19.9587 9.0878 19.9587 8.8668H17.9587C17.9587 9.11912 17.9576 9.28455 17.9447 9.40965L19.9343 9.61394ZM19.9587 8.8668V8.8018H17.9587V8.8668H19.9587ZM19.9587 8.8018C19.9587 7.83686 19.9602 6.97285 19.8767 6.26753L17.8906 6.50273C17.9571 7.06407 17.9587 7.79173 17.9587 8.8018H19.9587ZM19.8769 6.26902C19.7893 5.51988 19.5883 4.74495 19.0335 4.06314L17.4822 5.32545C17.699 5.59197 17.8247 5.93871 17.8904 6.50124L19.8769 6.26902ZM19.0335 4.06314C18.8556 3.84458 18.6559 3.64482 18.4373 3.46697L17.175 5.01828C17.2876 5.10991 17.3905 5.21284 17.4822 5.32545L19.0335 4.06314ZM18.4366 3.46643C17.7551 2.91284 16.9823 2.7105 16.2314 2.62273L15.9992 4.6092C16.56 4.67476 16.9072 4.80075 17.1757 5.01883L18.4366 3.46643ZM16.1642 2.61716L14.6492 2.54299L14.5514 4.5406L16.0664 4.61477L16.1642 2.61716ZM14.6252 2.5421C14.6131 2.5418 14.5951 2.53935 14.5726 2.53191C14.55 2.52442 14.5278 2.51347 14.5088 2.50075C14.4895 2.48782 14.4795 2.47714 14.4769 2.47409C14.4741 2.47067 14.4851 2.48245 14.4964 2.51392L12.6159 3.19467C12.9078 4.00121 13.7522 4.52098 14.5754 4.54148L14.6252 2.5421ZM14.4989 2.52079C14.4931 2.50434 14.4874 2.48781 14.482 2.47121L12.582 3.09572C12.5921 3.12651 12.6026 3.15721 12.6134 3.1878L14.4989 2.52079ZM14.4816 2.47016L14.455 2.38933L12.5557 3.01593L12.5823 3.09676L14.4816 2.47016ZM14.4531 2.38374C14.4304 2.31609 14.3939 2.20258 14.3513 2.0989L12.501 2.85802C12.5118 2.88434 12.5203 2.91083 12.5575 3.02151L14.4531 2.38374ZM14.354 2.10539C14.1216 1.52744 13.7299 1.02731 13.2246 0.663082L12.0552 2.28557C12.2535 2.42849 12.4072 2.62475 12.4984 2.85154L14.354 2.10539ZM13.2246 0.663082C12.7193 0.298857 12.121 0.0854988 11.4992 0.0477948L11.3781 2.04413C11.6221 2.05892 11.8569 2.14265 12.0552 2.28557L13.2246 0.663082ZM11.4858 0.047071C11.387 0.0424124 11.288 0.040677 11.1891 0.041867L11.2132 2.04172C11.2727 2.04101 11.3321 2.04205 11.3916 2.04485L11.4858 0.047071ZM11.2012 0.0417946H8.81783V2.04179H11.2012V0.0417946ZM6.30949 5.79179H13.692V3.7918H6.30949V5.79179ZM13.692 5.79179C14.734 5.79179 15.3787 5.79506 15.8527 5.85079L16.0862 3.86447C15.4686 3.79186 14.6866 3.7918 13.692 3.7918V5.79179ZM15.8527 5.85078C16.297 5.90306 16.3777 5.9817 16.3857 5.98819L17.6483 4.43707C17.2262 4.09356 16.7186 3.93886 16.0863 3.86448L15.8527 5.85078ZM16.3884 5.99033C16.4313 6.02507 16.4728 6.06629 16.5127 6.11528L18.0629 4.85164C17.9412 4.7023 17.8027 4.56185 17.6456 4.43493L16.3884 5.99033ZM16.5123 6.11473C16.5188 6.12271 16.5974 6.20342 16.6497 6.6478L18.636 6.41412C18.5616 5.78184 18.4069 5.27421 18.0634 4.85219L16.5123 6.11473ZM16.6497 6.64798C16.7062 7.12737 16.7087 7.77999 16.7087 8.84096H18.7087C18.7087 7.83026 18.7095 7.03789 18.636 6.41395L16.6497 6.64798ZM16.7087 8.84096C16.7087 9.14083 16.7072 9.23025 16.7019 9.27867L18.6904 9.49325C18.7102 9.31001 18.7087 9.08442 18.7087 8.84096H16.7087ZM16.6979 9.32726C16.7006 9.28051 16.7091 9.23429 16.7232 9.18965L18.6308 9.79061C18.6661 9.67836 18.6875 9.56217 18.6944 9.44466L16.6979 9.32726ZM16.8226 8.97048C16.8453 8.93324 16.8709 8.89793 16.8994 8.86492L18.4146 10.1703C18.4579 10.1201 18.4969 10.0664 18.5314 10.0098L16.8226 8.97048ZM17.096 8.68983C17.1355 8.66304 17.1782 8.64129 17.2232 8.62511L17.9008 10.5068C18.0129 10.4665 18.1194 10.4122 18.218 10.3454L17.096 8.68983ZM17.1759 8.64352C17.1294 8.66296 17.0398 8.69196 16.758 8.77596L17.3293 10.6926C17.5675 10.6216 17.7796 10.559 17.9481 10.4884L17.1759 8.64352ZM16.7562 8.77649L12.4212 10.0773L12.9961 11.9929L17.3311 10.6921L16.7562 8.77649ZM13.7087 11.0351V10.8335H11.7087V11.0351H13.7087ZM13.7087 10.8335C13.7087 9.70618 12.7943 8.7918 11.667 8.7918V10.7918C11.6744 10.7918 11.679 10.7931 11.6826 10.7946C11.6869 10.7964 11.6918 10.7995 11.6963 10.8041C11.7009 10.8087 11.704 10.8136 11.7058 10.8179C11.7074 10.8215 11.7087 10.8261 11.7087 10.8335H13.7087ZM11.667 8.7918H8.33366V10.7918H11.667V8.7918ZM8.33366 8.7918C7.20637 8.7918 6.29199 9.70618 6.29199 10.8335H8.29199C8.29199 10.8261 8.29329 10.8215 8.29482 10.8179C8.29663 10.8136 8.29972 10.8087 8.30431 10.8041C8.3089 10.7995 8.31377 10.7964 8.31805 10.7946C8.32167 10.7931 8.32629 10.7918 8.33366 10.7918V8.7918ZM6.29199 10.8335V11.0351H8.29199V10.8335H6.29199ZM7.57924 10.0773L3.24424 8.77727L2.66975 10.693L7.00475 11.993L7.57924 10.0773ZM3.22467 8.77162C3.07805 8.73089 2.93331 8.68365 2.79089 8.63005L2.08643 10.5019C2.28437 10.5764 2.48553 10.642 2.68931 10.6986L3.22467 8.77162ZM2.77793 8.62527C2.82256 8.64137 2.86501 8.66297 2.90429 8.68956L1.78303 10.3457C1.88138 10.4123 1.98765 10.4664 2.09939 10.5067L2.77793 8.62527ZM2.05047 10.4737L6.9988 11.9912L7.58518 10.0791L2.63685 8.56157L2.05047 10.4737ZM7.58894 10.0802L2.6206 8.53523L2.02672 10.445L6.99505 11.99L7.58894 10.0802ZM3.27694 9.18803C3.29142 9.23374 3.30013 9.28108 3.30287 9.32896L1.30612 9.44296C1.31289 9.56161 1.33448 9.67894 1.37038 9.79223L3.27694 9.18803ZM3.30224 9.31887C3.29202 9.16689 3.28853 9.01453 3.29177 8.86224L1.29222 8.81969C1.28772 9.03092 1.29257 9.24225 1.30675 9.45305L3.30224 9.31887ZM3.29199 8.84096C3.29199 7.77999 3.29447 7.12737 3.35096 6.64798L1.3647 6.41395C1.29118 7.03789 1.29199 7.83027 1.29199 8.84096H3.29199ZM3.35098 6.6478C3.40326 6.20342 3.48189 6.12271 3.48839 6.11473L1.93726 4.85219C1.59376 5.27421 1.43906 5.78184 1.36467 6.41412L3.35098 6.6478ZM3.48846 6.11465C3.52616 6.06831 3.56851 6.02596 3.61485 5.98826L2.35247 4.437C2.20023 4.56088 2.06108 4.70004 1.93719 4.85227L3.48846 6.11465ZM3.61493 5.98819C3.62291 5.9817 3.70362 5.90306 4.148 5.85078L3.91432 3.86448C3.28203 3.93886 2.77441 4.09356 2.35239 4.43707L3.61493 5.98819ZM4.14791 5.85079C4.62195 5.79506 5.2666 5.79179 6.30949 5.79179V3.7918C5.31405 3.7918 4.53204 3.79186 3.91441 3.86447L4.14791 5.85079ZM8.81699 1.29179C8.71985 1.29179 8.64235 1.29123 8.57545 1.29541L8.7002 3.29151C8.686 3.2924 8.67942 3.29214 8.70057 3.29197C8.72218 3.2918 8.75532 3.29179 8.81699 3.29179V1.29179ZM8.57701 1.29531C8.19126 1.31881 7.82011 1.45132 7.50669 1.67742L8.6768 3.29941C8.68319 3.29479 8.69077 3.29209 8.69864 3.29161L8.57701 1.29531ZM7.50669 1.67742C7.19327 1.90352 6.95046 2.21394 6.80648 2.57258L8.66251 3.31768C8.66544 3.31036 8.6704 3.30402 8.6768 3.29941L7.50669 1.67742ZM6.79848 2.59317C6.771 2.66624 6.74555 2.74005 6.72215 2.81452L8.63017 3.41407C8.64254 3.37471 8.65599 3.3357 8.67051 3.29709L6.79848 2.59317ZM6.72973 2.79139L6.70556 2.86222L8.59842 3.50803L8.62259 3.4372L6.72973 2.79139ZM6.70415 2.86638L6.67248 2.96055L8.56817 3.59804L8.59983 3.50387L6.70415 2.86638ZM6.68053 2.93755C6.66244 2.98732 6.64313 3.03039 6.62179 3.0703L8.38553 4.01329C8.45419 3.88487 8.51155 3.7546 8.56012 3.62104L6.68053 2.93755ZM7.50366 4.54179H12.4953V2.54179H7.50366V4.54179ZM13.3788 3.07338C13.3476 3.0144 13.3219 2.95263 13.3021 2.88888L11.3919 3.48138C11.4486 3.66412 11.5222 3.84117 11.6118 4.01021L13.3788 3.07338ZM13.2968 2.87226L13.2735 2.80142L11.3739 3.42717L11.3972 3.498L13.2968 2.87226ZM13.277 2.81242C13.2539 2.7394 13.2289 2.66699 13.2021 2.59524L11.3285 3.29502C11.3435 3.33504 11.3574 3.37544 11.3703 3.41617L13.277 2.81242ZM13.1933 2.57253C13.0492 2.21364 12.8062 1.90307 12.4924 1.67695L11.323 3.29945C11.3294 3.30407 11.3344 3.3104 11.3373 3.31773L13.1933 2.57253ZM12.4924 1.67695C12.1787 1.45083 11.8072 1.31846 11.4212 1.29526L11.3012 3.29166C11.309 3.29213 11.3166 3.29483 11.323 3.29945L12.4924 1.67695ZM11.3961 1.29407C11.3193 1.29139 11.2425 1.29067 11.1656 1.29193L11.1983 3.29166C11.241 3.29096 11.2836 3.29136 11.3262 3.29285L11.3961 1.29407ZM11.182 1.29179H8.81699V3.29179H11.182V1.29179ZM2.127 11.0958C2.13285 12.2955 2.15681 13.4884 2.26483 14.53L4.25416 14.3236C4.15717 13.3885 4.1328 12.2814 4.12698 11.0861L2.127 11.0958ZM2.26485 14.5301C2.33482 15.2037 2.44043 15.8256 2.60563 16.3504L4.51335 15.7499C4.40522 15.4064 4.31749 14.9333 4.25414 14.3235L2.26485 14.5301ZM2.60624 16.3523C2.76988 16.8686 3.00214 17.3283 3.34854 17.6369L4.67878 16.1434C4.70687 16.1684 4.69324 16.1658 4.65492 16.0972C4.6179 16.0309 4.56721 15.9198 4.51275 15.748L2.60624 16.3523ZM3.3493 17.6375C3.98106 18.1991 4.78569 18.4581 5.8419 18.5832L6.07708 16.5971C5.20496 16.4938 4.87126 16.3145 4.67802 16.1427L3.3493 17.6375ZM5.84068 18.583C6.88895 18.7085 8.24204 18.7085 10.0003 18.7085V16.7085C8.19194 16.7085 6.98004 16.7051 6.0783 16.5972L5.84068 18.583ZM10.0003 18.7085C11.758 18.7085 13.1107 18.7093 14.1599 18.5839L13.9225 16.598C13.02 16.7059 11.8093 16.7085 10.0003 16.7085V18.7085ZM14.1596 18.5839C15.2163 18.4579 16.0197 18.1978 16.6505 17.6383L15.3235 16.142C15.1293 16.3142 14.7943 16.494 13.9227 16.598L14.1596 18.5839ZM16.6521 17.6369C16.9985 17.3283 17.2308 16.8686 17.3944 16.3523L15.4879 15.748C15.4334 15.9198 15.3827 16.0309 15.3457 16.0972C15.3074 16.1658 15.2938 16.1684 15.3219 16.1434L16.6521 17.6369ZM17.3949 16.3509C17.5603 15.8264 17.6659 15.2033 17.7358 14.5301L15.7465 14.3235C15.6831 14.9336 15.5954 15.4072 15.4875 15.7493L17.3949 16.3509ZM17.7358 14.53C17.8438 13.4884 17.8678 12.2947 17.8736 11.0958L15.8737 11.0861C15.8678 12.2806 15.8435 13.3885 15.7465 14.3236L17.7358 14.53ZM16.5864 10.1331L12.4214 11.3823L12.9959 13.298L17.1609 12.0488L16.5864 10.1331ZM11.7087 12.3401V12.6351H13.7087V12.3401H11.7087ZM11.7087 12.6351C11.7087 12.6511 11.6986 12.6668 11.6823 12.6733L12.425 14.5303C13.2004 14.2201 13.7087 13.4692 13.7087 12.6351H11.7087ZM11.6823 12.6733L11.0989 12.9067L11.8417 14.7636L12.425 14.5303L11.6823 12.6733ZM11.099 12.9066C10.3937 13.1887 9.60695 13.1887 8.90169 12.9066L8.15896 14.7636C9.34101 15.2364 10.6596 15.2364 11.8417 14.7636L11.099 12.9066ZM8.90172 12.9067L8.31838 12.6733L7.5756 14.5303L8.15894 14.7636L8.90172 12.9067ZM8.31819 12.6732C8.31046 12.6702 8.30384 12.6648 8.29916 12.6579L6.64346 13.7798C6.87228 14.1175 7.19701 14.3789 7.57579 14.5303L8.31819 12.6732ZM8.29916 12.6579C8.2945 12.651 8.292 12.6429 8.29199 12.6346L6.29199 12.6357C6.29222 13.0436 6.41463 13.4421 6.64346 13.7798L8.29916 12.6579ZM8.29199 12.6351V12.3401H6.29199V12.6351H8.29199ZM7.57927 11.3823L3.41427 10.1331L2.83971 12.0488L7.00471 13.298L7.57927 11.3823ZM7.54199 11.0418V12.4935H9.54199V11.0418H7.54199ZM8.1709 13.4221L8.6234 13.6029L9.36559 11.7457L8.91309 11.5649L8.1709 13.4221ZM8.6231 13.6028C9.50719 13.9564 10.4942 13.9566 11.378 13.6026L10.6344 11.746C10.2282 11.9087 9.77346 11.9088 9.36588 11.7458L8.6231 13.6028ZM11.3773 13.6029L11.8298 13.4221L11.0876 11.5649L10.6351 11.7457L11.3773 13.6029ZM12.4587 12.4935V11.0418H10.4587V12.4935H12.4587ZM11.4587 10.0418H8.54199V12.0418H11.4587V10.0418Z" fill="white" mask="url(#path-1-inside-1_428_2308)"/>
</g>
</g>
</svg>
